<?xml version="1.0" encoding="UTF-8"?>
<!DOCTYPE svg PUBLIC "-//W3C//DTD SVG 1.1//EN" "http://www.w3.org/Graphics/SVG/1.1/DTD/svg11.dtd">
<svg xmlns="http://www.w3.org/2000/svg" version="1.1" width="320px" height="180px" style="shape-rendering:geometricPrecision; text-rendering:geometricPrecision; image-rendering:optimizeQuality; fill-rule:evenodd; clip-rule:evenodd" xmlns:xlink="http://www.w3.org/1999/xlink">
<g><path style="opacity:0.947" fill="#fefefe" d="M 85.5,9.5 C 99.8488,9.16739 114.182,9.50072 128.5,10.5C 142.04,35.0807 155.707,59.5807 169.5,84C 155.707,108.419 142.04,132.919 128.5,157.5C 114.167,158.833 99.8333,158.833 85.5,157.5C 99.0399,132.919 112.707,108.419 126.5,84C 112.428,59.3533 98.7614,34.52 85.5,9.5 Z"/></g>
<g><path style="opacity:0.948" fill="#fefefe" d="M 152.5,9.5 C 166.504,9.33343 180.504,9.50009 194.5,10C 208.427,34.5216 222.094,59.1883 235.5,84C 222.094,108.812 208.427,133.478 194.5,158C 180.504,158.5 166.504,158.667 152.5,158.5C 165.463,133.347 179.13,108.513 193.5,84C 178.901,59.6314 165.234,34.7981 152.5,9.5 Z"/></g>
</svg>
