<?xml version="1.0" encoding="UTF-8"?>
<!DOCTYPE svg PUBLIC "-//W3C//DTD SVG 1.1//EN" "http://www.w3.org/Graphics/SVG/1.1/DTD/svg11.dtd">
<svg xmlns="http://www.w3.org/2000/svg" version="1.1" width="470px" height="470px" style="shape-rendering:geometricPrecision; text-rendering:geometricPrecision; image-rendering:optimizeQuality; fill-rule:evenodd; clip-rule:evenodd" xmlns:xlink="http://www.w3.org/1999/xlink">
<g><path style="opacity:0.963" fill="#fdfdfd" d="M 261.5,-0.5 C 262.833,-0.5 264.167,-0.5 265.5,-0.5C 282.859,16.692 299.693,34.3586 316,52.5C 316.667,54.8333 316.667,57.1667 316,59.5C 275.688,96.7558 235.855,134.589 196.5,173C 285.833,173.333 375.167,173.667 464.5,174C 467.401,176.64 469.068,179.807 469.5,183.5C 469.5,220.5 469.5,257.5 469.5,294.5C 468.167,307.167 468.167,319.833 469.5,332.5C 469.5,372.167 469.5,411.833 469.5,451.5C 468.893,456.428 468.06,461.428 467,466.5C 466.5,467 466,467.5 465.5,468C 461.312,468.176 457.312,468.676 453.5,469.5C 337.167,469.5 220.833,469.5 104.5,469.5C 102.73,467.887 101.564,465.887 101,463.5C 99.9911,455.202 99.4911,446.868 99.5,438.5C 100.766,381.309 100.766,324.142 99.5,267C 99.1501,265.743 98.4835,265.409 97.5,266C 84.6551,278.012 71.9885,290.179 59.5,302.5C 56.6285,305.146 53.2952,305.979 49.5,305C 47.0232,303.357 44.6898,301.524 42.5,299.5C 28.8504,283.517 14.5171,268.184 -0.5,253.5C -0.5,251.5 -0.5,249.5 -0.5,247.5C 43.96,204.572 88.96,162.072 134.5,120C 176.098,78.8983 218.431,38.7317 261.5,-0.5 Z M 263.5,19.5 C 273.153,30.6532 283.32,41.3199 294,51.5C 295.289,53.0548 295.956,54.7215 296,56.5C 215,132.833 134,209.167 53,285.5C 41.6972,275.875 31.5305,265.208 22.5,253.5C 21.1666,252.38 20.6666,251.047 21,249.5C 101.231,171.862 182.064,95.1954 263.5,19.5 Z M 183.5,189.5 C 273.5,189.5 363.5,189.5 453.5,189.5C 453.5,277.5 453.5,365.5 453.5,453.5C 341.167,453.5 228.833,453.5 116.5,453.5C 116.333,386.833 116.5,320.166 117,253.5C 124.765,243.732 133.265,234.565 142.5,226C 150.523,218.976 158.189,211.643 165.5,204C 171.11,198.544 177.11,193.71 183.5,189.5 Z"/></g>
<g><path style="opacity:0.945" fill="#fdfdfd" d="M 418.5,32.5 C 423.991,32.1602 427.824,34.4935 430,39.5C 432.422,46.2967 431.588,52.6301 427.5,58.5C 421.86,62.9752 417.027,62.3085 413,56.5C 412.176,53.2152 411.676,49.8818 411.5,46.5C 410.531,40.4354 412.864,35.7688 418.5,32.5 Z"/></g>
<g><path style="opacity:0.942" fill="#fbfbfb" d="M 391.5,58.5 C 398.993,58.037 406.326,58.7037 413.5,60.5C 414.44,64.4631 414.607,68.4631 414,72.5C 412.421,74.0412 410.587,75.2078 408.5,76C 402.792,77.5827 397.125,77.5827 391.5,76C 390.019,75.0197 388.685,73.853 387.5,72.5C 386.329,68.5177 386.329,64.5177 387.5,60.5C 389.38,60.7709 390.713,60.1042 391.5,58.5 Z"/></g>
<g><path style="opacity:0.945" fill="#fdfdfd" d="M 433.5,58.5 C 439.509,58.3338 445.509,58.5005 451.5,59C 455.259,62.7434 456.426,67.2434 455,72.5C 448.479,77.4481 441.313,78.6148 433.5,76C 428.78,72.7015 427.28,68.2015 429,62.5C 430.397,60.9297 431.897,59.5964 433.5,58.5 Z"/></g>
<g><path style="opacity:0.948" fill="#fcfcfc" d="M 417.5,74.5 C 426.937,73.6015 431.604,77.9348 431.5,87.5C 431.936,95.6623 428.27,100.662 420.5,102.5C 415.468,101.633 412.635,98.6333 412,93.5C 411.249,88.4285 411.582,83.4285 413,78.5C 414.25,76.8065 415.75,75.4732 417.5,74.5 Z"/></g>
<g><path style="opacity:0.936" fill="#fdfdfd" d="M 341.5,80.5 C 351.413,79.7464 356.08,84.413 355.5,94.5C 356.094,104.743 351.428,109.243 341.5,108C 339.877,105.92 338.377,103.754 337,101.5C 336.333,96.5 336.333,91.5 337,86.5C 338.332,84.34 339.832,82.34 341.5,80.5 Z"/></g>
<g><path style="opacity:0.939" fill="#fdfdfd" d="M 318.5,105.5 C 325.89,104.215 332.39,105.881 338,110.5C 339.426,115.757 338.259,120.257 334.5,124C 328.833,124.667 323.167,124.667 317.5,124C 315.167,122.333 312.833,120.667 310.5,119C 310.526,112.833 313.193,108.333 318.5,105.5 Z"/></g>
<g><path style="opacity:0.929" fill="#fdfdfd" d="M 359.5,105.5 C 364.959,105.103 370.292,105.603 375.5,107C 382.353,113.207 382.019,118.874 374.5,124C 369.167,124.667 363.833,124.667 358.5,124C 357.034,123.365 355.7,122.531 354.5,121.5C 352.976,118.18 351.976,114.68 351.5,111C 354.621,109.694 357.287,107.86 359.5,105.5 Z"/></g>
<g><path style="opacity:0.956" fill="#fcfcfc" d="M 343.5,121.5 C 352.668,121.848 356.668,126.681 355.5,136C 355.541,140.827 354.208,145.16 351.5,149C 340.356,152.209 335.023,147.876 335.5,136C 334.638,128.927 337.305,124.094 343.5,121.5 Z"/></g>
<g><path style="opacity:0.987" fill="#fefefe" d="M 281.5,243.5 C 285.516,242.9 289.016,243.9 292,246.5C 299.039,260.744 306.206,274.911 313.5,289C 325.749,291.145 338.082,292.811 350.5,294C 356.595,294.296 361.428,296.796 365,301.5C 365.667,304.5 365.667,307.5 365,310.5C 355.024,320.809 344.691,330.809 334,340.5C 333.138,342.087 332.471,343.754 332,345.5C 333.638,359.702 335.805,373.869 338.5,388C 338.705,395.796 335.038,399.463 327.5,399C 314.586,393.209 301.919,386.876 289.5,380C 287.722,379.296 285.888,378.796 284,378.5C 269.907,385.463 255.74,392.296 241.5,399C 234.23,399.569 230.563,396.069 230.5,388.5C 232.342,375.78 234.509,363.113 237,350.5C 237.667,347.5 237.667,344.5 237,341.5C 225.675,332.508 215.342,322.508 206,311.5C 200.673,304.326 202.173,299.159 210.5,296C 225.891,293.944 241.224,291.611 256.5,289C 263.128,275.576 269.628,262.076 276,248.5C 277.73,246.598 279.563,244.931 281.5,243.5 Z"/></g>
</svg>
