<?xml version="1.0" encoding="UTF-8"?>
<!DOCTYPE svg PUBLIC "-//W3C//DTD SVG 1.1//EN" "http://www.w3.org/Graphics/SVG/1.1/DTD/svg11.dtd">
<svg xmlns="http://www.w3.org/2000/svg" version="1.1" width="472px" height="473px" style="shape-rendering:geometricPrecision; text-rendering:geometricPrecision; image-rendering:optimizeQuality; fill-rule:evenodd; clip-rule:evenodd" xmlns:xlink="http://www.w3.org/1999/xlink">
<g><path style="opacity:0.924" fill="#f6f6f9" d="M 264.5,-0.5 C 265.5,-0.5 266.5,-0.5 267.5,-0.5C 284.998,16.1388 301.831,33.4721 318,51.5C 319.483,54.7024 319.817,58.0357 319,61.5C 313.532,67.9689 307.699,74.1356 301.5,80C 268.167,111.333 234.833,142.667 201.5,174C 285.338,174.804 369.172,174.638 453,173.5C 457.901,173.463 462.734,173.963 467.5,175C 469.35,175.69 470.684,176.856 471.5,178.5C 471.5,275.5 471.5,372.5 471.5,469.5C 470.167,470.167 469.167,471.167 468.5,472.5C 347.167,472.5 225.833,472.5 104.5,472.5C 100.656,468.3 98.9889,463.3 99.5,457.5C 100.641,394.841 100.807,332.174 100,269.5C 86.5,282.333 73,295.167 59.5,308C 55.2253,310.284 51.2253,309.95 47.5,307C 30.8997,290.239 14.8997,273.072 -0.5,255.5C -0.5,253.167 -0.5,250.833 -0.5,248.5C 3.64153,242.193 8.97486,237.026 15.5,233C 96.531,155.634 177.864,78.6344 259.5,2C 261.315,1.24316 262.981,0.409824 264.5,-0.5 Z M 263.5,21.5 C 275.015,32.5126 286.515,43.8459 298,55.5C 298.667,56.5 298.667,57.5 298,58.5C 216.984,135.016 135.818,211.35 54.5,287.5C 53.5,287 52.5,286.5 51.5,286C 41.6667,275.5 31.8333,265 22,254.5C 21.3333,253.5 21.3333,252.5 22,251.5C 94.2289,181.935 167.062,113.102 240.5,45C 248.369,37.2983 256.036,29.4649 263.5,21.5 Z M 183.5,190.5 C 273.833,190.5 364.167,190.5 454.5,190.5C 454.5,279.167 454.5,367.833 454.5,456.5C 342.167,456.5 229.833,456.5 117.5,456.5C 117.333,388.833 117.5,321.166 118,253.5C 139.729,232.269 161.562,211.269 183.5,190.5 Z M 285.5,274.5 C 290.481,283.129 294.981,292.129 299,301.5C 300.141,303.609 301.641,305.442 303.5,307C 315.08,309.74 326.747,312.073 338.5,314C 330.275,321.89 322.441,330.057 315,338.5C 314.706,350.901 316.206,363.068 319.5,375C 310.217,371.527 301.217,367.194 292.5,362C 287.385,360.016 282.385,360.349 277.5,363C 269.833,367.167 262.167,371.333 254.5,375.5C 254.167,374.833 253.833,374.167 253.5,373.5C 255.553,363.9 257.22,354.233 258.5,344.5C 258.406,342.077 257.906,339.744 257,337.5C 248.985,329.652 241.152,321.652 233.5,313.5C 243.176,312.082 252.843,310.582 262.5,309C 267.188,308.08 270.688,305.58 273,301.5C 277.726,292.718 281.892,283.718 285.5,274.5 Z"/></g>
<g><path style="opacity:1" fill="#2631ab" d="M 263.5,2.5 C 266.016,2.75526 268.35,3.58859 270.5,5C 286.563,21.2759 302.063,38.1092 317,55.5C 317.667,56.8333 317.667,58.1667 317,59.5C 315.5,61.6667 314,63.8333 312.5,66C 273.354,101.979 234.687,138.479 196.5,175.5C 285.831,176.333 375.165,176.833 464.5,177C 466.329,177.273 467.829,178.107 469,179.5C 469.667,275.5 469.667,371.5 469,467.5C 468.167,468.333 467.333,469.167 466.5,470C 346.167,470.667 225.833,470.667 105.5,470C 104.789,468.745 103.956,467.579 103,466.5C 102.833,399.498 102.333,332.498 101.5,265.5C 88.3493,277.483 75.3493,289.65 62.5,302C 59.8753,304.46 56.8753,306.294 53.5,307.5C 45.5482,301.05 38.0482,294.05 31,286.5C 21.2968,276.465 11.9635,266.132 3,255.5C 2.00867,253.553 1.67533,251.553 2,249.5C 7.22284,242.644 13.3895,236.811 20.5,232C 101.093,154.902 182.093,78.4019 263.5,2.5 Z M 263.5,21.5 C 256.036,29.4649 248.369,37.2983 240.5,45C 167.062,113.102 94.2289,181.935 22,251.5C 21.3333,252.5 21.3333,253.5 22,254.5C 31.8333,265 41.6667,275.5 51.5,286C 52.5,286.5 53.5,287 54.5,287.5C 135.818,211.35 216.984,135.016 298,58.5C 298.667,57.5 298.667,56.5 298,55.5C 286.515,43.8459 275.015,32.5126 263.5,21.5 Z M 183.5,190.5 C 161.562,211.269 139.729,232.269 118,253.5C 117.5,321.166 117.333,388.833 117.5,456.5C 229.833,456.5 342.167,456.5 454.5,456.5C 454.5,367.833 454.5,279.167 454.5,190.5C 364.167,190.5 273.833,190.5 183.5,190.5 Z M 285.5,274.5 C 281.892,283.718 277.726,292.718 273,301.5C 270.688,305.58 267.188,308.08 262.5,309C 252.843,310.582 243.176,312.082 233.5,313.5C 241.152,321.652 248.985,329.652 257,337.5C 257.906,339.744 258.406,342.077 258.5,344.5C 257.22,354.233 255.553,363.9 253.5,373.5C 253.833,374.167 254.167,374.833 254.5,375.5C 262.167,371.333 269.833,367.167 277.5,363C 282.385,360.349 287.385,360.016 292.5,362C 301.217,367.194 310.217,371.527 319.5,375C 316.206,363.068 314.706,350.901 315,338.5C 322.441,330.057 330.275,321.89 338.5,314C 326.747,312.073 315.08,309.74 303.5,307C 301.641,305.442 300.141,303.609 299,301.5C 294.981,292.129 290.481,283.129 285.5,274.5 Z"/></g>
<g><path style="opacity:0.819" fill="#ececf3" d="M 264.5,17.5 C 275.416,28.9174 286.583,40.2508 298,51.5C 299.919,53.6911 301.253,56.0245 302,58.5C 219.833,136 137.667,213.5 55.5,291C 54.8333,291.667 54.1667,291.667 53.5,291C 40.9911,279.157 29.1578,266.657 18,253.5C 17.3333,252.833 17.3333,252.167 18,251.5C 100.062,173.268 182.229,95.268 264.5,17.5 Z M 263.5,21.5 C 256.036,29.4649 248.369,37.2983 240.5,45C 167.062,113.102 94.2289,181.935 22,251.5C 21.3333,252.5 21.3333,253.5 22,254.5C 31.8333,265 41.6667,275.5 51.5,286C 52.5,286.5 53.5,287 54.5,287.5C 135.818,211.35 216.984,135.016 298,58.5C 298.667,57.5 298.667,56.5 298,55.5C 286.515,43.8459 275.015,32.5126 263.5,21.5 Z"/></g>
<g><path style="opacity:0.833" fill="#e3e3e6" d="M 422.5,34.5 C 429.734,36.7978 432.734,41.7978 431.5,49.5C 432.125,59.0443 427.792,63.211 418.5,62C 414.857,58.5289 413.191,54.1956 413.5,49C 412.402,41.346 415.402,36.5127 422.5,34.5 Z"/></g>
<g><path style="opacity:1" fill="#2f36ae" d="M 420.5,37.5 C 427.143,38.2237 430.143,42.057 429.5,49C 430.064,54.7203 427.731,58.5536 422.5,60.5C 420.272,59.7814 418.439,58.448 417,56.5C 416.333,51.5 416.333,46.5 417,41.5C 418.376,40.2949 419.542,38.9616 420.5,37.5 Z"/></g>
<g><path style="opacity:0.809" fill="#edeef2" d="M 397.5,60.5 C 403.058,60.4258 408.391,61.4258 413.5,63.5C 415.977,67.35 416.144,71.35 414,75.5C 406.741,78.8403 399.241,79.3403 391.5,77C 385.971,68.5153 387.971,63.0153 397.5,60.5 Z"/></g>
<g><path style="opacity:0.84" fill="#f2f2f6" d="M 439.5,60.5 C 444.742,60.0227 449.742,60.8561 454.5,63C 459.324,72.1916 456.657,77.1916 446.5,78C 434.933,80.4199 429.766,75.9199 431,64.5C 433.447,62.1924 436.281,60.8591 439.5,60.5 Z"/></g>
<g><path style="opacity:1" fill="#2c34ad" d="M 394.5,63.5 C 399.179,63.3342 403.845,63.5008 408.5,64C 413.115,65.1235 414.615,67.9569 413,72.5C 411.829,73.8932 410.329,74.7265 408.5,75C 403.5,75.6667 398.5,75.6667 393.5,75C 391.496,72.1592 390.996,68.9926 392,65.5C 392.995,64.9341 393.828,64.2674 394.5,63.5 Z"/></g>
<g><path style="opacity:1" fill="#2a34ac" d="M 435.5,63.5 C 440.844,63.334 446.177,63.5006 451.5,64C 455.897,68.728 455.23,72.3947 449.5,75C 445.167,75.6667 440.833,75.6667 436.5,75C 431.531,71.66 431.197,67.8267 435.5,63.5 Z"/></g>
<g><path style="opacity:0.848" fill="#f3f3f6" d="M 417.5,77.5 C 427.699,75.6939 432.699,80.0272 432.5,90.5C 432.11,95.5336 430.11,99.7003 426.5,103C 421.222,104.726 417.388,103.226 415,98.5C 412.439,90.9488 413.272,83.9488 417.5,77.5 Z"/></g>
<g><path style="opacity:1" fill="#2d35ad" d="M 419.5,79.5 C 424.181,78.4564 427.348,80.1231 429,84.5C 430.196,90.0524 429.363,95.2191 426.5,100C 421.967,102.574 418.8,101.408 417,96.5C 416.333,91.8333 416.333,87.1667 417,82.5C 418.045,81.6266 418.878,80.6266 419.5,79.5 Z"/></g>
<g><path style="opacity:0.835" fill="#f1f1f5" d="M 342.5,83.5 C 345.518,83.3354 348.518,83.502 351.5,84C 353.259,85.008 354.426,86.508 355,88.5C 356.631,94.211 356.631,99.8777 355,105.5C 348.654,112.49 343.321,111.824 339,103.5C 338.333,98.5 338.333,93.5 339,88.5C 339.997,86.6769 341.164,85.0103 342.5,83.5 Z"/></g>
<g><path style="opacity:1" fill="#2c35ad" d="M 344.5,85.5 C 348.317,84.8258 351.15,86.1592 353,89.5C 353.667,94.1667 353.667,98.8333 353,103.5C 347.925,109.285 343.925,108.618 341,101.5C 339.52,95.4515 340.686,90.1181 344.5,85.5 Z"/></g>
<g><path style="opacity:0.848" fill="#f6f6f9" d="M 319.5,108.5 C 325.762,107.872 331.762,108.705 337.5,111C 341.558,116.209 340.892,120.875 335.5,125C 328.735,126.953 322.068,126.62 315.5,124C 313.544,120.405 313.044,116.572 314,112.5C 315.5,110.531 317.333,109.198 319.5,108.5 Z"/></g>
<g><path style="opacity:0.828" fill="#f1f2f5" d="M 360.5,108.5 C 366.762,107.872 372.762,108.705 378.5,111C 382.311,114.954 382.478,119.121 379,123.5C 371.554,127.277 364.054,127.277 356.5,123.5C 354.534,120.451 354.034,117.118 355,113.5C 356.352,111.251 358.185,109.584 360.5,108.5 Z"/></g>
<g><path style="opacity:1" fill="#2d35ad" d="M 320.5,110.5 C 325.777,109.931 330.777,110.765 335.5,113C 337.988,115.627 338.155,118.46 336,121.5C 333.072,123.038 329.906,123.704 326.5,123.5C 322.501,123.978 319.001,122.978 316,120.5C 314.571,115.783 316.071,112.45 320.5,110.5 Z"/></g>
<g><path style="opacity:1" fill="#2c35ad" d="M 362.5,110.5 C 367.52,109.873 372.187,110.706 376.5,113C 378.988,115.627 379.155,118.46 377,121.5C 370.775,124.098 364.609,124.098 358.5,121.5C 355.11,116.116 356.443,112.45 362.5,110.5 Z"/></g>
<g><path style="opacity:0.838" fill="#e6e6eb" d="M 343.5,124.5 C 348.126,123.7 351.96,125.034 355,128.5C 355.667,134.833 355.667,141.167 355,147.5C 349.393,152.942 344.06,152.608 339,146.5C 337,140.833 337,135.167 339,129.5C 340.193,127.503 341.693,125.836 343.5,124.5 Z"/></g>
<g><path style="opacity:1" fill="#2d35ad" d="M 345.5,126.5 C 348.785,126.269 351.285,127.603 353,130.5C 353.667,135.5 353.667,140.5 353,145.5C 350.019,148.937 346.519,149.437 342.5,147C 341.874,146.25 341.374,145.416 341,144.5C 340.333,140.167 340.333,135.833 341,131.5C 342.025,129.313 343.525,127.646 345.5,126.5 Z"/></g>
<g><path style="opacity:0.988" fill="#e3e3e3" d="M 182.5,188.5 C 274.167,188.5 365.833,188.5 457.5,188.5C 457.5,278.5 457.5,368.5 457.5,458.5C 343.5,458.5 229.5,458.5 115.5,458.5C 115.333,389.833 115.5,321.166 116,252.5C 137.402,230.263 159.569,208.929 182.5,188.5 Z M 183.5,190.5 C 161.562,211.269 139.729,232.269 118,253.5C 117.5,321.166 117.333,388.833 117.5,456.5C 229.833,456.5 342.167,456.5 454.5,456.5C 454.5,367.833 454.5,279.167 454.5,190.5C 364.167,190.5 273.833,190.5 183.5,190.5 Z M 285.5,274.5 C 281.892,283.718 277.726,292.718 273,301.5C 270.688,305.58 267.188,308.08 262.5,309C 252.843,310.582 243.176,312.082 233.5,313.5C 241.152,321.652 248.985,329.652 257,337.5C 257.906,339.744 258.406,342.077 258.5,344.5C 257.22,354.233 255.553,363.9 253.5,373.5C 253.833,374.167 254.167,374.833 254.5,375.5C 262.167,371.333 269.833,367.167 277.5,363C 282.385,360.349 287.385,360.016 292.5,362C 301.217,367.194 310.217,371.527 319.5,375C 316.206,363.068 314.706,350.901 315,338.5C 322.441,330.057 330.275,321.89 338.5,314C 326.747,312.073 315.08,309.74 303.5,307C 301.641,305.442 300.141,303.609 299,301.5C 294.981,292.129 290.481,283.129 285.5,274.5 Z"/></g>
<g><path style="opacity:0.813" fill="#f0f0f5" d="M 281.5,246.5 C 286.041,245.769 290.041,246.769 293.5,249.5C 300.516,263.531 307.516,277.531 314.5,291.5C 328.781,293.897 343.114,296.064 357.5,298C 366.477,299.859 368.977,305.026 365,313.5C 354.387,324.113 343.721,334.779 333,345.5C 334.508,360.719 336.675,375.886 339.5,391C 339.218,398.948 335.218,401.948 327.5,400C 313.828,393.164 300.162,386.331 286.5,379.5C 273.226,385.47 260.226,391.97 247.5,399C 243.928,400.405 240.261,400.738 236.5,400C 235.333,399.5 234.5,398.667 234,397.5C 233.333,392.833 233.333,388.167 234,383.5C 236.144,370.462 238.144,357.462 240,344.5C 228.976,334.475 218.309,324.142 208,313.5C 202.751,304.506 205.251,299.339 215.5,298C 229.873,296.066 244.207,293.899 258.5,291.5C 265,277.833 271.5,264.167 278,250.5C 279.376,249.295 280.542,247.962 281.5,246.5 Z M 285.5,274.5 C 281.892,283.718 277.726,292.718 273,301.5C 270.688,305.58 267.188,308.08 262.5,309C 252.843,310.582 243.176,312.082 233.5,313.5C 241.152,321.652 248.985,329.652 257,337.5C 257.906,339.744 258.406,342.077 258.5,344.5C 257.22,354.233 255.553,363.9 253.5,373.5C 253.833,374.167 254.167,374.833 254.5,375.5C 262.167,371.333 269.833,367.167 277.5,363C 282.385,360.349 287.385,360.016 292.5,362C 301.217,367.194 310.217,371.527 319.5,375C 316.206,363.068 314.706,350.901 315,338.5C 322.441,330.057 330.275,321.89 338.5,314C 326.747,312.073 315.08,309.74 303.5,307C 301.641,305.442 300.141,303.609 299,301.5C 294.981,292.129 290.481,283.129 285.5,274.5 Z"/></g>
<g><path style="opacity:1" fill="#2a33ac" d="M 283.5,248.5 C 286.365,248.055 288.865,248.722 291,250.5C 298.132,265.267 305.632,279.767 313.5,294C 325.074,296.18 336.741,297.847 348.5,299C 353.767,299.814 358.767,301.314 363.5,303.5C 364.647,305.765 364.814,308.098 364,310.5C 353,321.5 342,332.5 331,343.5C 330.333,347.5 330.333,351.5 331,355.5C 334.079,368.711 335.745,382.044 336,395.5C 335.167,396.333 334.333,397.167 333.5,398C 330.351,398.274 327.351,397.608 324.5,396C 311.959,389.229 299.292,382.729 286.5,376.5C 272.73,383.097 259.064,389.93 245.5,397C 242.923,398.25 240.257,398.584 237.5,398C 236.874,397.25 236.374,396.416 236,395.5C 237.138,378.501 239.638,361.667 243.5,345C 230.7,333.865 218.866,321.699 208,308.5C 206.55,304.276 208.05,301.776 212.5,301C 228.573,298.888 244.573,296.388 260.5,293.5C 267,279.833 273.5,266.167 280,252.5C 281.376,251.295 282.542,249.962 283.5,248.5 Z M 285.5,274.5 C 281.892,283.718 277.726,292.718 273,301.5C 270.688,305.58 267.188,308.08 262.5,309C 252.843,310.582 243.176,312.082 233.5,313.5C 241.152,321.652 248.985,329.652 257,337.5C 257.906,339.744 258.406,342.077 258.5,344.5C 257.22,354.233 255.553,363.9 253.5,373.5C 253.833,374.167 254.167,374.833 254.5,375.5C 262.167,371.333 269.833,367.167 277.5,363C 282.385,360.349 287.385,360.016 292.5,362C 301.217,367.194 310.217,371.527 319.5,375C 316.206,363.068 314.706,350.901 315,338.5C 322.441,330.057 330.275,321.89 338.5,314C 326.747,312.073 315.08,309.74 303.5,307C 301.641,305.442 300.141,303.609 299,301.5C 294.981,292.129 290.481,283.129 285.5,274.5 Z"/></g>
<g><path style="opacity:0.824" fill="#ededf4" d="M 284.5,270.5 C 285.496,270.414 286.329,270.748 287,271.5C 292.421,280.413 297.088,289.746 301,299.5C 302.141,301.609 303.641,303.442 305.5,305C 318.203,307.304 330.87,309.804 343.5,312.5C 336.151,320.683 328.317,328.35 320,335.5C 319,337.167 318,338.833 317,340.5C 318.174,353.552 320.008,366.552 322.5,379.5C 319.092,378.633 315.758,377.467 312.5,376C 304.268,370.717 295.602,366.217 286.5,362.5C 274.472,368.181 262.472,373.848 250.5,379.5C 251.288,370.06 252.788,360.726 255,351.5C 255.667,347.5 255.667,343.5 255,339.5C 246.821,330.655 238.654,321.821 230.5,313C 230.645,312.228 230.978,311.561 231.5,311C 240.876,309.929 250.21,308.596 259.5,307C 264.623,306.362 268.457,303.862 271,299.5C 276.059,290.052 280.559,280.385 284.5,270.5 Z M 285.5,274.5 C 281.892,283.718 277.726,292.718 273,301.5C 270.688,305.58 267.188,308.08 262.5,309C 252.843,310.582 243.176,312.082 233.5,313.5C 241.152,321.652 248.985,329.652 257,337.5C 257.906,339.744 258.406,342.077 258.5,344.5C 257.22,354.233 255.553,363.9 253.5,373.5C 253.833,374.167 254.167,374.833 254.5,375.5C 262.167,371.333 269.833,367.167 277.5,363C 282.385,360.349 287.385,360.016 292.5,362C 301.217,367.194 310.217,371.527 319.5,375C 316.206,363.068 314.706,350.901 315,338.5C 322.441,330.057 330.275,321.89 338.5,314C 326.747,312.073 315.08,309.74 303.5,307C 301.641,305.442 300.141,303.609 299,301.5C 294.981,292.129 290.481,283.129 285.5,274.5 Z"/></g>
</svg>
