<?xml version="1.0" encoding="UTF-8"?>
<!DOCTYPE svg PUBLIC "-//W3C//DTD SVG 1.1//EN" "http://www.w3.org/Graphics/SVG/1.1/DTD/svg11.dtd">
<svg xmlns="http://www.w3.org/2000/svg" version="1.1" width="346px" height="437px" style="shape-rendering:geometricPrecision; text-rendering:geometricPrecision; image-rendering:optimizeQuality; fill-rule:evenodd; clip-rule:evenodd" xmlns:xlink="http://www.w3.org/1999/xlink">
<g><path style="opacity:0.986" fill="#fefefe" d="M 114.5,-0.5 C 116.5,-0.5 118.5,-0.5 120.5,-0.5C 125.561,0.0284264 130.061,2.02843 134,5.5C 136.723,8.55678 139.056,11.8901 141,15.5C 141.942,19.4681 142.775,23.4681 143.5,27.5C 146.432,28.7997 148.766,30.7997 150.5,33.5C 152.079,36.9939 153.913,40.3272 156,43.5C 156.667,41.5 156.667,39.5 156,37.5C 154.357,35.0232 152.524,32.6898 150.5,30.5C 153.248,25.3343 156.248,20.3343 159.5,15.5C 164.838,18.1669 169.838,21.3336 174.5,25C 176.65,26.4114 178.984,27.2447 181.5,27.5C 180.606,41.3517 176.772,54.3517 170,66.5C 168.039,69.4628 165.706,72.1294 163,74.5C 162.013,83.4441 162.513,92.2774 164.5,101C 164.333,107.352 161.333,109.519 155.5,107.5C 154.334,104.497 152.667,101.83 150.5,99.5C 153.566,97.7068 155.4,95.0401 156,91.5C 156.879,86.7133 156.545,82.0466 155,77.5C 150.667,72.5 146.333,67.5 142,62.5C 140.956,60.2852 140.29,57.9519 140,55.5C 136.707,57.2085 133.207,58.2085 129.5,58.5C 129.67,59.8221 129.337,60.9887 128.5,62C 130.434,68.2113 131.101,74.7113 130.5,81.5C 122.702,82.9519 123.036,83.6186 131.5,83.5C 131.76,87.3019 132.594,90.9686 134,94.5C 135.883,93.3474 136.716,91.6807 136.5,89.5C 139.127,90.0916 141.794,90.4249 144.5,90.5C 147.631,101.951 149.464,113.617 150,125.5C 160.5,130.667 171,135.833 181.5,141C 189.56,147.435 188.226,151.768 177.5,154C 169.5,154.333 161.5,154.667 153.5,155C 155.582,161.328 156.415,167.828 156,174.5C 154.299,179.744 152.965,185.077 152,190.5C 149.712,194.456 146.712,197.789 143,200.5C 142.333,202.5 142.333,204.5 143,206.5C 146.752,209.629 150.919,212.129 155.5,214C 186.441,220.993 211.607,236.827 231,261.5C 244.357,283.615 250.024,307.615 248,333.5C 244.186,355.091 238.353,376.091 230.5,396.5C 237.583,398.361 244.583,400.528 251.5,403C 269.241,405.21 286.241,402.543 302.5,395C 319.473,384.088 324.973,368.921 319,349.5C 311.683,334.727 300.183,329.894 284.5,335C 277.567,341.209 275.733,348.709 279,357.5C 281.153,359.444 283.653,359.944 286.5,359C 288.397,353.811 290.397,348.644 292.5,343.5C 301.572,340.053 307.405,343.053 310,352.5C 311.206,366.581 305.039,375.748 291.5,380C 277.16,382.79 266.993,377.623 261,364.5C 254.854,347.143 256.854,330.81 267,315.5C 279.725,303.741 294.225,301.241 310.5,308C 325.228,313.636 335.395,323.803 341,338.5C 342.84,343.874 344.34,349.207 345.5,354.5C 345.5,360.5 345.5,366.5 345.5,372.5C 342.645,390.04 334.645,404.873 321.5,417C 288.232,437.314 254.065,438.814 219,421.5C 216.93,423.963 215.097,426.629 213.5,429.5C 211.664,430.919 209.664,432.086 207.5,433C 200.773,434.615 194.107,435.782 187.5,436.5C 175.5,436.5 163.5,436.5 151.5,436.5C 143.962,435.56 136.295,434.56 128.5,433.5C 128.388,429.661 127.721,429.661 126.5,433.5C 123.553,434.321 120.553,434.821 117.5,435C 106.783,435.575 96.1161,435.075 85.5,433.5C 85.6495,432.448 85.4828,431.448 85,430.5C 83.6012,431.227 82.1012,431.727 80.5,432C 71.8333,432.667 63.1667,432.667 54.5,432C 52.4841,430.972 51.4841,429.305 51.5,427C 52.4943,423.178 54.1609,419.678 56.5,416.5C 61.5972,414.601 66.7638,412.934 72,411.5C 73.9574,386.374 75.1241,361.208 75.5,336C 75.7337,329.03 74.9003,322.197 73,315.5C 66.113,296.841 60.4463,277.841 56,258.5C 53.3464,245.277 52.3464,231.943 53,218.5C 53.9614,213.949 55.1281,209.449 56.5,205C 53.0393,201.539 49.5393,198.039 46,194.5C 38.6636,182.647 36.8303,169.98 40.5,156.5C 26.7452,156.025 13.0785,154.691 -0.5,152.5C -0.5,151.5 -0.5,150.5 -0.5,149.5C 0.93142,147.563 2.59809,145.73 4.5,144C 18.109,137.279 31.609,130.446 45,123.5C 44.5219,115.864 44.5219,108.197 45,100.5C 47.3263,96.1645 50.993,93.8312 56,93.5C 57.5378,86.1454 59.2045,78.812 61,71.5C 63.194,68.8194 66.0273,67.3194 69.5,67C 67.1902,66.5034 64.8568,66.3367 62.5,66.5C 63.9577,57.2547 67.791,49.2547 74,42.5C 75.704,16.9647 89.204,2.63141 114.5,-0.5 Z M 161.5,29.5 C 163.729,30.0553 165.395,31.3886 166.5,33.5C 164.726,36.7148 163.226,40.0482 162,43.5C 161.501,38.8452 161.334,34.1785 161.5,29.5 Z M 128.5,45.5 C 131.302,48.4758 133.969,51.6425 136.5,55C 134.238,55.6419 132.071,56.4752 130,57.5C 129.499,53.4899 128.999,49.4899 128.5,45.5 Z M 135.5,399.5 C 138.037,403.635 141.37,407.135 145.5,410C 140.585,410.305 136.085,411.805 132,414.5C 132.003,412.144 132.503,409.811 133.5,407.5C 134.325,406.614 135.325,406.281 136.5,406.5C 136.007,404.194 135.674,401.861 135.5,399.5 Z"/></g>
<g><path style="opacity:0.999" fill="#a01dcf" d="M 60.5,108.5 C 64.1515,107.835 67.9848,107.501 72,107.5C 91.4951,108.17 110.995,108.67 130.5,109C 124.402,109.266 118.402,110.099 112.5,111.5C 112.5,112.5 112.5,113.5 112.5,114.5C 105.71,114.612 99.0433,115.445 92.5,117C 93.8333,117.667 95.1667,118.333 96.5,119C 106.9,119.797 117.233,119.297 127.5,117.5C 129.5,117.667 131.5,117.833 133.5,118C 134.833,118.667 134.833,119.333 133.5,120C 119.677,123.04 105.677,124.207 91.5,123.5C 91.0986,120.252 90.432,117.085 89.5,114C 82.1321,113.687 74.7988,113.02 67.5,112C 64.5958,111.867 62.2624,110.7 60.5,108.5 Z"/></g>
<g><path style="opacity:0.999" fill="#9f1ccf" d="M 62.5,114.5 C 71.1731,114.334 79.8397,114.5 88.5,115C 89.4231,117.041 89.7564,119.208 89.5,121.5C 80.1416,120.728 70.8082,120.561 61.5,121C 58.777,118.341 59.1103,116.175 62.5,114.5 Z"/></g>
<g><path style="opacity:0.999" fill="#0e0e0e" d="M 64.5,160.5 C 67.3035,159.362 70.3035,159.195 73.5,160C 72.259,162.563 70.9256,165.063 69.5,167.5C 66.5719,165.929 64.9053,163.596 64.5,160.5 Z"/></g>
<g><path style="opacity:1" fill="#151515" d="M 128.5,158.5 C 131.167,158.5 133.833,158.5 136.5,158.5C 133.907,167.791 131.24,167.791 128.5,158.5 Z"/></g>
<g><path style="opacity:0.998" fill="#0d0d0d" d="M 82.5,161.5 C 86.8333,161.833 89.1667,164.167 89.5,168.5C 86.7531,168.813 84.0865,168.48 81.5,167.5C 82.3482,165.591 82.6816,163.591 82.5,161.5 Z"/></g>
<g><path style="opacity:0.998" fill="#0f0f0f" d="M 116.5,160.5 C 117.675,160.281 118.675,160.614 119.5,161.5C 120.348,163.409 120.682,165.409 120.5,167.5C 118.473,167.662 116.473,167.495 114.5,167C 113.572,166.612 112.905,165.945 112.5,165C 113.344,162.993 114.677,161.493 116.5,160.5 Z"/></g>
</svg>
