<?xml version="1.0" encoding="UTF-8"?>
<!DOCTYPE svg PUBLIC "-//W3C//DTD SVG 1.1//EN" "http://www.w3.org/Graphics/SVG/1.1/DTD/svg11.dtd">
<svg xmlns="http://www.w3.org/2000/svg" version="1.1" width="344px" height="435px" style="shape-rendering:geometricPrecision; text-rendering:geometricPrecision; image-rendering:optimizeQuality; fill-rule:evenodd; clip-rule:evenodd" xmlns:xlink="http://www.w3.org/1999/xlink">
<g><path style="opacity:0.974" fill="#020101" d="M 111.5,-0.5 C 115.5,-0.5 119.5,-0.5 123.5,-0.5C 135.543,4.9136 141.543,14.2469 141.5,27.5C 142.72,26.2889 143.887,26.2889 145,27.5C 148.732,32.9065 152.065,38.5731 155,44.5C 155.667,41.5 155.667,38.5 155,35.5C 153.124,33.5777 151.624,31.411 150.5,29C 152.713,24.0656 155.546,19.5656 159,15.5C 160.5,16 162,16.5 163.5,17C 168.085,21.084 173.085,24.584 178.5,27.5C 178.611,41.3541 175.111,54.3541 168,66.5C 165.667,68.8333 163.333,71.1667 161,73.5C 160.039,82.2956 160.539,90.9623 162.5,99.5C 162.247,101.858 161.914,104.192 161.5,106.5C 158.975,107.892 156.808,107.558 155,105.5C 154.357,102.28 152.524,100.113 149.5,99C 150.563,97.8118 151.897,97.3118 153.5,97.5C 155.629,90.2963 155.962,82.963 154.5,75.5C 148.876,70.2533 143.709,64.5867 139,58.5C 138.508,57.451 138.674,56.451 139.5,55.5C 134.17,52.3354 130.003,48.0021 127,42.5C 126.731,49.4788 127.565,56.3122 129.5,63C 128.736,68.462 128.236,73.962 128,79.5C 124.527,80.6575 121.027,81.8242 117.5,83C 121.423,83.7927 125.256,83.626 129,82.5C 130.229,86.4732 131.395,90.4732 132.5,94.5C 135.418,93.0814 136.918,90.7481 137,87.5C 137.976,89.8872 139.809,91.0539 142.5,91C 144.265,94.6301 145.432,98.4634 146,102.5C 146.777,109.823 147.444,117.157 148,124.5C 158.269,130.051 168.769,135.218 179.5,140C 182.255,141.711 184.589,143.878 186.5,146.5C 184.172,149.335 181.172,151.169 177.5,152C 168.831,153.478 160.165,153.811 151.5,153C 153.33,158.133 154.33,163.467 154.5,169C 154.591,173.304 153.591,177.304 151.5,181C 152.346,184.787 151.513,188.287 149,191.5C 146.203,195.299 143.036,198.799 139.5,202C 141.833,205.667 144.833,208.667 148.5,211C 160.167,215.333 171.833,219.667 183.5,224C 230.111,246.361 250.944,283.527 246,335.5C 242.878,355.825 237.044,375.325 228.5,394C 234.467,398.171 241.134,400.838 248.5,402C 266.063,404.907 283.063,402.907 299.5,396C 317.689,385.441 324.189,369.941 319,349.5C 312.428,334.798 301.261,328.964 285.5,332C 283.04,333.458 280.873,335.291 279,337.5C 278.383,338.449 278.549,339.282 279.5,340C 278.552,340.483 277.552,340.649 276.5,340.5C 275.632,344.808 275.466,349.141 276,353.5C 277.872,358.418 281.205,360.084 286,358.5C 288.141,353.244 289.974,347.91 291.5,342.5C 302.671,339.817 308.671,344.317 309.5,356C 306.06,373.727 295.393,381.06 277.5,378C 269.192,375.696 263.359,370.529 260,362.5C 256.56,353.445 256.06,344.279 258.5,335C 255.301,328.769 251.968,322.603 248.5,316.5C 248.846,315.304 249.346,315.304 250,316.5C 253,320.833 256,325.167 259,329.5C 266.208,308.477 280.708,300.311 302.5,305C 325.992,311.984 339.658,327.484 343.5,351.5C 343.5,357.5 343.5,363.5 343.5,369.5C 341.291,385.59 334.958,399.923 324.5,412.5C 290.289,435.178 254.622,437.511 217.5,419.5C 215.625,422.751 213.625,425.918 211.5,429C 204.061,432.317 196.395,434.15 188.5,434.5C 173.833,434.5 159.167,434.5 144.5,434.5C 138.927,433.7 133.261,432.7 127.5,431.5C 127.252,423.933 126.585,424.266 125.5,432.5C 112.116,434.005 98.7828,433.672 85.5,431.5C 85.6567,430.127 85.49,428.793 85,427.5C 83.9025,428.967 82.4025,429.801 80.5,430C 70.8391,430.5 61.1724,430.666 51.5,430.5C 50.8877,424.836 52.5543,420.002 56.5,416C 53.8333,415.667 51.1667,415.333 48.5,415C 56.3827,414.974 64.0493,413.807 71.5,411.5C 74.3694,381.248 75.2027,350.915 74,320.5C 67.9859,300.48 61.9859,280.48 56,260.5C 53.0976,245.618 52.0976,230.618 53,215.5C 53.6606,211.352 54.8272,207.352 56.5,203.5C 40.7374,191.163 35.404,175.163 40.5,155.5C 26.7525,154.491 13.0859,152.824 -0.5,150.5C -0.5,149.5 -0.5,148.5 -0.5,147.5C 0.674125,145.559 2.34079,144.059 4.5,143C 18.1978,136.151 31.8644,129.318 45.5,122.5C 43.0365,113.581 43.2031,104.581 46,95.5C 49.4277,94.6042 52.9277,93.9376 56.5,93.5C 57.3539,85.7102 58.8539,78.0435 61,70.5C 65.0065,67.6938 69.5065,65.8605 74.5,65C 70.1289,64.8275 65.7956,64.3275 61.5,63.5C 64.3017,55.5691 68.135,48.2358 73,41.5C 74.5392,31.2159 77.8725,21.5492 83,12.5C 91.394,5.5499 100.894,1.21656 111.5,-0.5 Z M 160.5,27.5 C 163.26,28.423 165.26,30.2563 166.5,33C 164.206,37.088 162.039,41.2547 160,45.5C 159.254,39.4492 159.421,33.4492 160.5,27.5 Z M 133.5,395.5 C 136.175,401.347 140.508,405.847 146.5,409C 142.5,410 138.5,411 134.5,412C 132.714,412.785 131.214,413.951 130,415.5C 130.323,412.191 130.989,408.857 132,405.5C 133.264,405.36 134.431,405.36 135.5,405.5C 133.697,402.174 133.03,398.841 133.5,395.5 Z"/></g>
<g><path style="opacity:1" fill="#623769" d="M 60.5,108.5 C 83.3248,108.388 106.325,108.222 129.5,108C 123.784,108.282 118.117,108.948 112.5,110C 109.332,110.582 108.999,111.582 111.5,113C 105.5,113.333 99.5,113.667 93.5,114C 92.376,114.249 91.376,114.749 90.5,115.5C 94.286,118.874 98.786,120.207 104,119.5C 113.83,118.527 123.663,118.027 133.5,118C 130.361,118.754 127.361,119.754 124.5,121C 113.172,121.693 101.839,122.193 90.5,122.5C 89.9492,119.193 89.6159,115.86 89.5,112.5C 79.4985,113.202 69.8319,111.869 60.5,108.5 Z"/></g>
<g><path style="opacity:1" fill="#29112c" d="M 130.5,109.5 C 131.675,109.281 132.675,109.614 133.5,110.5C 128.533,111.662 123.533,111.829 118.5,111C 122.688,110.824 126.688,110.324 130.5,109.5 Z"/></g>
<g><path style="opacity:1" fill="#733f7b" d="M 58.5,114.5 C 68.1667,114.5 77.8333,114.5 87.5,114.5C 87.3573,116.262 87.6906,117.929 88.5,119.5C 87.1667,119.833 85.8333,120.167 84.5,120.5C 76.5149,119.801 68.5149,119.301 60.5,119C 57.9849,118.061 57.3183,116.561 58.5,114.5 Z"/></g>
<g><path style="opacity:1" fill="#220f26" d="M 127.5,113.5 C 129.604,113.201 131.604,113.534 133.5,114.5C 125.845,115.428 118.179,116.261 110.5,117C 105.319,117.939 100.319,117.606 95.5,116C 106.366,115.761 117.032,114.928 127.5,113.5 Z"/></g>
<g><path style="opacity:1" fill="#eae8e8" d="M 64.5,158.5 C 66.924,158.192 69.2573,158.526 71.5,159.5C 70.5682,161.795 69.7348,164.129 69,166.5C 65.6951,164.894 64.1951,162.227 64.5,158.5 Z"/></g>
<g><path style="opacity:1" fill="#eae7e7" d="M 128.5,158.5 C 136.447,157.656 137.447,159.656 131.5,164.5C 129.962,162.757 128.962,160.757 128.5,158.5 Z"/></g>
<g><path style="opacity:1" fill="#dfdcdc" d="M 115.5,159.5 C 116.5,159.5 117.5,159.5 118.5,159.5C 118.318,161.591 118.652,163.591 119.5,165.5C 117.235,166.647 114.902,166.814 112.5,166C 111.978,165.439 111.645,164.772 111.5,164C 112.344,161.993 113.677,160.493 115.5,159.5 Z"/></g>
<g><path style="opacity:1" fill="#e4e1e1" d="M 81.5,161.5 C 84.549,160.869 86.8824,162.202 88.5,165.5C 85.912,166.718 83.2453,167.218 80.5,167C 81.1667,165.333 81.8333,163.667 82.5,162C 82.2716,161.601 81.9382,161.435 81.5,161.5 Z"/></g>
</svg>
