<?xml version="1.0" encoding="UTF-8"?>
<!DOCTYPE svg PUBLIC "-//W3C//DTD SVG 1.1//EN" "http://www.w3.org/Graphics/SVG/1.1/DTD/svg11.dtd">
<svg xmlns="http://www.w3.org/2000/svg" version="1.1" width="664px" height="601px" style="shape-rendering:geometricPrecision; text-rendering:geometricPrecision; image-rendering:optimizeQuality; fill-rule:evenodd; clip-rule:evenodd" xmlns:xlink="http://www.w3.org/1999/xlink">
<g><path style="opacity:0.979" fill="#fdfdfd" d="M 593.5,-0.5 C 598.833,-0.5 604.167,-0.5 609.5,-0.5C 625.928,1.87756 640.595,8.37756 653.5,19C 652.902,21.048 651.569,22.2147 649.5,22.5C 606.34,7.04783 574.506,19.7145 554,60.5C 548.828,74.0244 545.828,88.0244 545,102.5C 544.333,118.167 544.333,133.833 545,149.5C 579.59,122.787 614.09,95.9542 648.5,69C 663.093,66.1635 666.593,71.3302 659,84.5C 563.896,166.598 469.063,249.098 374.5,332C 402.702,332.125 430.702,329.792 458.5,325C 511.745,312.376 541.912,278.876 549,224.5C 549.973,212.191 550.473,199.858 550.5,187.5C 551.086,187.291 551.586,186.957 552,186.5C 556.75,189.256 560.083,193.256 562,198.5C 569.603,239.09 561.269,276.09 537,309.5C 516.638,332.49 491.138,345.99 460.5,350C 443.563,351.968 426.563,352.968 409.5,353C 439.737,360.513 467.737,372.847 493.5,390C 500.889,396.176 499.889,398.843 490.5,398C 462.557,388.599 434.224,380.932 405.5,375C 476.262,431.098 547.595,486.431 619.5,541C 626.127,546.299 631.294,552.799 635,560.5C 638.783,581.282 630.617,594.616 610.5,600.5C 608.167,600.5 605.833,600.5 603.5,600.5C 599.503,599.349 595.503,597.849 591.5,596C 521.613,537.119 452.613,477.119 384.5,416C 366.647,400.645 348.647,385.479 330.5,370.5C 248.031,441.47 166.031,512.97 84.5,585C 78.0096,590.157 71.0096,594.491 63.5,598C 41.3479,600.186 29.0146,590.186 26.5,568C 26.7175,560.067 29.5508,553.234 35,547.5C 108.924,489.787 182.757,431.954 256.5,374C 247.098,375.348 237.765,377.348 228.5,380C 209.108,385.464 189.774,391.131 170.5,397C 165.9,398.583 164.066,397.083 165,392.5C 175.233,383.962 186.4,376.795 198.5,371C 212.525,364.82 226.859,359.487 241.5,355C 218.304,354.435 195.638,350.768 173.5,344C 132.858,327.459 108.525,297.459 100.5,254C 96.8398,236.845 96.6731,219.678 100,202.5C 101.446,197.105 104.279,192.605 108.5,189C 110.112,188.28 111.612,188.446 113,189.5C 108.665,276.492 149.831,323.659 236.5,331C 253.49,332.27 270.49,332.936 287.5,333C 192.333,249.833 97.1667,166.667 2,83.5C 1.24316,81.6854 0.409824,80.0188 -0.5,78.5C -0.5,76.8333 -0.5,75.1667 -0.5,73.5C 1.14056,70.3391 3.80722,68.6724 7.5,68.5C 11.6203,68.928 15.2869,70.428 18.5,73C 51.5,98.8333 84.5,124.667 117.5,150.5C 119.309,127.393 118.476,104.393 115,81.5C 110.204,58.0557 98.0377,39.5557 78.5,26C 66.7087,19.2186 54.042,16.2186 40.5,17C 31.385,18.7227 22.385,20.8894 13.5,23.5C 11.448,23.3838 10.1147,22.3838 9.5,20.5C 20.6182,10.6098 33.6182,4.44314 48.5,2C 67.5974,-1.55864 84.9308,2.44136 100.5,14C 107.333,19.5 113.5,25.6667 119,32.5C 133.014,59.239 138.014,87.5723 134,117.5C 131.236,130.673 128.236,143.673 125,156.5C 193.071,210.406 261.571,263.74 330.5,316.5C 400.12,262.882 469.453,208.882 538.5,154.5C 531.878,135.389 528.211,115.722 527.5,95.5C 527.801,73.2975 532.967,52.2975 543,32.5C 555.758,15.0514 572.592,4.05139 593.5,-0.5 Z"/></g>
</svg>
