<?xml version="1.0" encoding="UTF-8"?>
<!DOCTYPE svg PUBLIC "-//W3C//DTD SVG 1.1//EN" "http://www.w3.org/Graphics/SVG/1.1/DTD/svg11.dtd">
<svg xmlns="http://www.w3.org/2000/svg" version="1.1" width="512px" height="512px" style="shape-rendering:geometricPrecision; text-rendering:geometricPrecision; image-rendering:optimizeQuality; fill-rule:evenodd; clip-rule:evenodd" xmlns:xlink="http://www.w3.org/1999/xlink">
<g><path style="opacity:0.997" fill="#e581f9" d="M 232.5,-0.5 C 247.833,-0.5 263.167,-0.5 278.5,-0.5C 368.676,10.3994 436.342,55.0661 481.5,133.5C 462.433,163.574 438.433,189.241 409.5,210.5C 391.527,201.513 373.527,192.513 355.5,183.5C 355.737,182.209 355.404,181.209 354.5,180.5C 353.097,168.643 350.097,157.31 345.5,146.5C 329.436,103.371 301.436,70.3713 261.5,47.5C 232.307,30.3675 200.973,22.7008 167.5,24.5C 166.48,26.4325 166.313,28.4325 167,30.5C 176.643,44.0979 181.477,59.2646 181.5,76C 180.153,98.9131 176.487,121.413 170.5,143.5C 166.963,155.443 163.63,167.443 160.5,179.5C 141.833,187.5 123.167,195.5 104.5,203.5C 83.8156,187.982 65.9823,169.648 51,148.5C 46.0584,140.265 40.8917,132.265 35.5,124.5C 73.299,61.9147 127.966,22.0814 199.5,5C 210.576,2.74641 221.576,0.913081 232.5,-0.5 Z"/></g>
<g><path style="opacity:1" fill="#243047" d="M 261.5,47.5 C 260.168,57.1436 259.501,67.1436 259.5,77.5C 259.041,99.8324 258.707,122.166 258.5,144.5C 254.167,144.5 249.833,144.5 245.5,144.5C 220.509,143.681 195.509,143.348 170.5,143.5C 176.487,121.413 180.153,98.9131 181.5,76C 181.477,59.2646 176.643,44.0979 167,30.5C 166.313,28.4325 166.48,26.4325 167.5,24.5C 200.973,22.7008 232.307,30.3675 261.5,47.5 Z"/></g>
<g><path style="opacity:1" fill="#1b2535" d="M 261.5,47.5 C 301.436,70.3713 329.436,103.371 345.5,146.5C 316.496,145.958 287.496,145.292 258.5,144.5C 258.707,122.166 259.041,99.8324 259.5,77.5C 259.501,67.1436 260.168,57.1436 261.5,47.5 Z"/></g>
<g><path style="opacity:1" fill="#fefcfe" d="M 121.5,77.5 C 124.833,77.5 128.167,77.5 131.5,77.5C 130.68,87.6788 135.347,92.6788 145.5,92.5C 145.5,95.8333 145.5,99.1667 145.5,102.5C 135.451,102.549 130.451,107.549 130.5,117.5C 127.167,117.5 123.833,117.5 120.5,117.5C 120.943,107.049 115.943,101.715 105.5,101.5C 105.5,98.5 105.5,95.5 105.5,92.5C 115.376,92.2889 120.71,87.2889 121.5,77.5 Z"/></g>
<g><path style="opacity:1" fill="#fefcfe" d="M 380.5,83.5 C 383.833,83.5 387.167,83.5 390.5,83.5C 391.213,92.8798 396.213,97.8798 405.5,98.5C 405.5,101.833 405.5,105.167 405.5,108.5C 395.48,107.855 390.147,112.522 389.5,122.5C 386.5,122.5 383.5,122.5 380.5,122.5C 380.5,112.5 375.5,107.5 365.5,107.5C 365.5,104.167 365.5,100.833 365.5,97.5C 375.369,97.963 380.369,93.2963 380.5,83.5 Z"/></g>
<g><path style="opacity:1" fill="#c667ea" d="M 35.5,124.5 C 40.8917,132.265 46.0584,140.265 51,148.5C 65.9823,169.648 83.8156,187.982 104.5,203.5C 100.851,205.079 97.3507,207.079 94,209.5C 93.3653,211.635 93.6986,213.635 95,215.5C 102.599,216.152 110.099,216.818 117.5,217.5C 112.057,236.03 116.723,251.864 131.5,265C 132.094,265.464 132.761,265.631 133.5,265.5C 128.953,276.579 124.453,287.579 120,298.5C 131.977,291.097 144.143,284.097 156.5,277.5C 156.5,278.167 156.5,278.833 156.5,279.5C 156.318,302.211 149.818,322.878 137,341.5C 130.626,348.206 124.626,355.206 119,362.5C 111.198,378.027 112.198,393.027 122,407.5C 123.704,409.373 125.537,411.04 127.5,412.5C 117.743,428.686 110.743,446.02 106.5,464.5C 43.9834,418.155 8.31675,356.155 -0.5,278.5C -0.5,263.167 -0.5,247.833 -0.5,232.5C 2.59834,203.448 10.0983,175.448 22,148.5C 25.7677,139.952 30.2677,131.952 35.5,124.5 Z"/></g>
<g><path style="opacity:1" fill="#c667ea" d="M 481.5,133.5 C 497.87,164.665 507.87,197.665 511.5,232.5C 511.5,247.833 511.5,263.167 511.5,278.5C 502.687,355.642 467.353,417.475 405.5,464C 401.929,466.421 398.262,468.587 394.5,470.5C 393.549,460.14 391.049,450.14 387,440.5C 383.488,432.812 379.988,425.145 376.5,417.5C 388.293,407.639 393.126,394.972 391,379.5C 389.837,374.172 387.837,369.172 385,364.5C 362.195,341.595 351.695,313.929 353.5,281.5C 355.279,279.656 357.612,278.99 360.5,279.5C 361.092,282.127 361.425,284.794 361.5,287.5C 365.179,287.276 368.846,286.942 372.5,286.5C 371.96,283.135 371.294,279.802 370.5,276.5C 380.913,270.25 388.746,261.583 394,250.5C 397.678,241.579 398.178,232.579 395.5,223.5C 402.508,223.666 409.508,223.5 416.5,223C 419.087,221.475 419.92,219.308 419,216.5C 415.853,214.35 412.687,212.35 409.5,210.5C 438.433,189.241 462.433,163.574 481.5,133.5 Z"/></g>
<g><path style="opacity:1" fill="#fce40a" d="M 170.5,143.5 C 195.509,143.348 220.509,143.681 245.5,144.5C 249.298,145.483 253.298,145.817 257.5,145.5C 257.5,157.167 257.5,168.833 257.5,180.5C 248.833,180.5 240.167,180.5 231.5,180.5C 207.827,180.514 184.161,180.18 160.5,179.5C 163.63,167.443 166.963,155.443 170.5,143.5 Z"/></g>
<g><path style="opacity:1" fill="#fbbc07" d="M 245.5,144.5 C 249.833,144.5 254.167,144.5 258.5,144.5C 287.496,145.292 316.496,145.958 345.5,146.5C 350.097,157.31 353.097,168.643 354.5,180.5C 344.554,182.475 334.221,183.142 323.5,182.5C 301.16,182.507 278.827,182.174 256.5,181.5C 247.983,181.826 239.65,181.493 231.5,180.5C 240.167,180.5 248.833,180.5 257.5,180.5C 257.5,168.833 257.5,157.167 257.5,145.5C 253.298,145.817 249.298,145.483 245.5,144.5 Z"/></g>
<g><path style="opacity:1" fill="#253047" d="M 160.5,179.5 C 184.161,180.18 207.827,180.514 231.5,180.5C 239.65,181.493 247.983,181.826 256.5,181.5C 256.5,194.167 256.5,206.833 256.5,219.5C 222.833,219.23 189.166,218.896 155.5,218.5C 143.011,217.505 130.344,217.171 117.5,217.5C 110.099,216.818 102.599,216.152 95,215.5C 93.6986,213.635 93.3653,211.635 94,209.5C 97.3507,207.079 100.851,205.079 104.5,203.5C 123.167,195.5 141.833,187.5 160.5,179.5 Z"/></g>
<g><path style="opacity:1" fill="#1c2535" d="M 256.5,181.5 C 278.827,182.174 301.16,182.507 323.5,182.5C 333.987,183.494 344.654,183.828 355.5,183.5C 373.527,192.513 391.527,201.513 409.5,210.5C 412.687,212.35 415.853,214.35 419,216.5C 419.92,219.308 419.087,221.475 416.5,223C 409.508,223.5 402.508,223.666 395.5,223.5C 382.677,222.505 369.677,222.171 356.5,222.5C 348.252,221.531 339.918,221.198 331.5,221.5C 329.5,221.5 327.5,221.5 325.5,221.5C 302.502,221.044 279.502,220.711 256.5,220.5C 256.5,220.167 256.5,219.833 256.5,219.5C 256.5,206.833 256.5,194.167 256.5,181.5 Z"/></g>
<g><path style="opacity:1" fill="#9c7b25" d="M 354.5,180.5 C 355.404,181.209 355.737,182.209 355.5,183.5C 344.654,183.828 333.987,183.494 323.5,182.5C 334.221,183.142 344.554,182.475 354.5,180.5 Z"/></g>
<g><path style="opacity:1" fill="#f6bca3" d="M 117.5,217.5 C 130.344,217.171 143.011,217.505 155.5,218.5C 148.44,234.287 141.107,249.954 133.5,265.5C 132.761,265.631 132.094,265.464 131.5,265C 116.723,251.864 112.057,236.03 117.5,217.5 Z"/></g>
<g><path style="opacity:1" fill="#fefdfd" d="M 155.5,218.5 C 189.166,218.896 222.833,219.23 256.5,219.5C 256.5,219.833 256.5,220.167 256.5,220.5C 256.167,220.5 255.833,220.5 255.5,220.5C 246.03,225.736 236.696,231.236 227.5,237C 233.945,238.62 238.278,242.453 240.5,248.5C 228.829,248.333 217.162,248.5 205.5,249C 189.104,258.527 172.77,268.027 156.5,277.5C 144.143,284.097 131.977,291.097 120,298.5C 124.453,287.579 128.953,276.579 133.5,265.5C 141.107,249.954 148.44,234.287 155.5,218.5 Z"/></g>
<g><path style="opacity:1" fill="#f3a47b" d="M 255.5,220.5 C 255.833,220.5 256.167,220.5 256.5,220.5C 279.502,220.711 302.502,221.044 325.5,221.5C 328.632,239.44 337.966,253.107 353.5,262.5C 354.167,256.012 354.833,249.679 355.5,243.5C 355.56,244.043 355.893,244.376 356.5,244.5C 357.524,237.177 357.524,229.843 356.5,222.5C 369.677,222.171 382.677,222.505 395.5,223.5C 398.178,232.579 397.678,241.579 394,250.5C 388.746,261.583 380.913,270.25 370.5,276.5C 369.509,271.956 368.509,267.289 367.5,262.5C 363.335,262.127 359.668,263.127 356.5,265.5C 358.048,270.141 359.382,274.807 360.5,279.5C 357.612,278.99 355.279,279.656 353.5,281.5C 344.303,313.03 324.969,336.03 295.5,350.5C 289.156,352.225 282.822,354.058 276.5,356C 268.881,357.205 261.214,357.705 253.5,357.5C 253.5,352.833 253.5,348.167 253.5,343.5C 261.807,343.508 269.474,341.508 276.5,337.5C 284.08,334.754 289.08,329.588 291.5,322C 291.404,317.24 289.071,314.24 284.5,313C 274.506,312.5 264.506,312.334 254.5,312.5C 254.5,312.167 254.5,311.833 254.5,311.5C 254.5,308.833 254.5,306.167 254.5,303.5C 258.09,303.456 260.59,301.789 262,298.5C 262.667,285.5 262.667,272.5 262,259.5C 260.399,257.281 258.233,255.948 255.5,255.5C 255.5,243.833 255.5,232.167 255.5,220.5 Z"/></g>
<g><path style="opacity:1" fill="#f6bca2" d="M 255.5,220.5 C 255.5,232.167 255.5,243.833 255.5,255.5C 251.91,255.544 249.41,257.211 248,260.5C 247.333,273.5 247.333,286.5 248,299.5C 249.272,302.222 251.439,303.556 254.5,303.5C 254.5,306.167 254.5,308.833 254.5,311.5C 243.495,311.333 232.495,311.5 221.5,312C 216.467,315.9 215.3,320.733 218,326.5C 221.758,330.95 226.258,334.283 231.5,336.5C 236.373,340.422 242.039,342.422 248.5,342.5C 249.919,343.451 251.585,343.784 253.5,343.5C 253.5,348.167 253.5,352.833 253.5,357.5C 240.254,357.884 227.588,355.384 215.5,350C 213.527,349.505 211.527,349.338 209.5,349.5C 209.918,348.778 210.584,348.278 211.5,348C 182.982,333.318 164.649,310.485 156.5,279.5C 156.5,278.833 156.5,278.167 156.5,277.5C 172.77,268.027 189.104,258.527 205.5,249C 217.162,248.5 228.829,248.333 240.5,248.5C 238.278,242.453 233.945,238.62 227.5,237C 236.696,231.236 246.03,225.736 255.5,220.5 Z"/></g>
<g><path style="opacity:1" fill="#fefcfb" d="M 325.5,221.5 C 327.5,221.5 329.5,221.5 331.5,221.5C 339.2,229.202 347.2,236.535 355.5,243.5C 354.833,249.679 354.167,256.012 353.5,262.5C 337.966,253.107 328.632,239.44 325.5,221.5 Z"/></g>
<g><path style="opacity:1" fill="#d8e6ee" d="M 331.5,221.5 C 339.918,221.198 348.252,221.531 356.5,222.5C 357.524,229.843 357.524,237.177 356.5,244.5C 355.893,244.376 355.56,244.043 355.5,243.5C 347.2,236.535 339.2,229.202 331.5,221.5 Z"/></g>
<g><path style="opacity:1" fill="#dfedf3" d="M 281.5,238.5 C 291.695,237.099 299.362,240.766 304.5,249.5C 293.161,250.3 281.828,249.967 270.5,248.5C 273.171,244.01 276.837,240.677 281.5,238.5 Z"/></g>
<g><path style="opacity:1" fill="#fefcfe" d="M 60.5,244.5 C 63.8333,244.5 67.1667,244.5 70.5,244.5C 69.8734,254.537 74.54,259.87 84.5,260.5C 84.5,263.5 84.5,266.5 84.5,269.5C 74.4814,269.519 69.4814,274.519 69.5,284.5C 66.1667,284.5 62.8333,284.5 59.5,284.5C 59.4915,275.155 54.8248,269.821 45.5,268.5C 45.5,265.5 45.5,262.5 45.5,259.5C 54.8333,258.833 59.8333,253.833 60.5,244.5 Z"/></g>
<g><path style="opacity:1" fill="#fdfbfe" d="M 441.5,253.5 C 444.5,253.5 447.5,253.5 450.5,253.5C 451.167,262.833 456.167,267.833 465.5,268.5C 465.5,271.833 465.5,275.167 465.5,278.5C 455.272,277.731 450.272,282.398 450.5,292.5C 447.167,292.5 443.833,292.5 440.5,292.5C 440.5,282.5 435.5,277.5 425.5,277.5C 425.5,274.167 425.5,270.833 425.5,267.5C 435.186,267.814 440.52,263.147 441.5,253.5 Z"/></g>
<g><path style="opacity:1" fill="#e47971" d="M 255.5,255.5 C 258.233,255.948 260.399,257.281 262,259.5C 262.667,272.5 262.667,285.5 262,298.5C 260.59,301.789 258.09,303.456 254.5,303.5C 251.439,303.556 249.272,302.222 248,299.5C 247.333,286.5 247.333,273.5 248,260.5C 249.41,257.211 251.91,255.544 255.5,255.5 Z"/></g>
<g><path style="opacity:1" fill="#263148" d="M 218.5,261.5 C 233.632,260.791 238.465,267.457 233,281.5C 224.405,287.848 217.405,286.514 212,277.5C 210.062,270.389 212.229,265.056 218.5,261.5 Z"/></g>
<g><path style="opacity:1" fill="#fde218" d="M 370.5,276.5 C 371.294,279.802 371.96,283.135 372.5,286.5C 368.846,286.942 365.179,287.276 361.5,287.5C 361.425,284.794 361.092,282.127 360.5,279.5C 359.382,274.807 358.048,270.141 356.5,265.5C 359.668,263.127 363.335,262.127 367.5,262.5C 368.509,267.289 369.509,271.956 370.5,276.5 Z"/></g>
<g><path style="opacity:1" fill="#1e2636" d="M 282.5,262.5 C 294.891,261.721 300.058,267.387 298,279.5C 293.539,287.324 287.372,289.157 279.5,285C 272.099,276.372 273.099,268.872 282.5,262.5 Z"/></g>
<g><path style="opacity:1" fill="#fefdfe" d="M 156.5,279.5 C 164.649,310.485 182.982,333.318 211.5,348C 210.584,348.278 209.918,348.778 209.5,349.5C 204.777,350.37 200.444,352.036 196.5,354.5C 174.848,363.298 156.348,376.632 141,394.5C 136.252,400.401 131.752,406.401 127.5,412.5C 125.537,411.04 123.704,409.373 122,407.5C 112.198,393.027 111.198,378.027 119,362.5C 124.626,355.206 130.626,348.206 137,341.5C 149.818,322.878 156.318,302.211 156.5,279.5 Z"/></g>
<g><path style="opacity:1" fill="#deeef6" d="M 353.5,281.5 C 351.695,313.929 362.195,341.595 385,364.5C 387.837,369.172 389.837,374.172 391,379.5C 393.126,394.972 388.293,407.639 376.5,417.5C 363.117,395.949 345.784,378.116 324.5,364C 320.131,361.115 315.464,358.949 310.5,357.5C 305.863,354.61 300.863,352.276 295.5,350.5C 324.969,336.03 344.303,313.03 353.5,281.5 Z"/></g>
<g><path style="opacity:1" fill="#263147" d="M 254.5,311.5 C 254.5,311.833 254.5,312.167 254.5,312.5C 254.5,317.5 254.5,322.5 254.5,327.5C 254.167,327.5 253.833,327.5 253.5,327.5C 244.791,327.397 237.458,330.397 231.5,336.5C 226.258,334.283 221.758,330.95 218,326.5C 215.3,320.733 216.467,315.9 221.5,312C 232.495,311.5 243.495,311.333 254.5,311.5 Z"/></g>
<g><path style="opacity:1" fill="#1c2535" d="M 254.5,312.5 C 264.506,312.334 274.506,312.5 284.5,313C 289.071,314.24 291.404,317.24 291.5,322C 289.08,329.588 284.08,334.754 276.5,337.5C 270.42,331.461 263.087,328.128 254.5,327.5C 254.5,322.5 254.5,317.5 254.5,312.5 Z"/></g>
<g><path style="opacity:1" fill="#df2844" d="M 253.5,327.5 C 253.5,332.5 253.5,337.5 253.5,342.5C 251.833,342.5 250.167,342.5 248.5,342.5C 242.039,342.422 236.373,340.422 231.5,336.5C 237.458,330.397 244.791,327.397 253.5,327.5 Z"/></g>
<g><path style="opacity:1" fill="#b8165b" d="M 253.5,327.5 C 253.833,327.5 254.167,327.5 254.5,327.5C 263.087,328.128 270.42,331.461 276.5,337.5C 269.474,341.508 261.807,343.508 253.5,343.5C 251.585,343.784 249.919,343.451 248.5,342.5C 250.167,342.5 251.833,342.5 253.5,342.5C 253.5,337.5 253.5,332.5 253.5,327.5 Z"/></g>
<g><path style="opacity:1" fill="#f2a47a" d="M 209.5,349.5 C 211.527,349.338 213.527,349.505 215.5,350C 227.588,355.384 240.254,357.884 253.5,357.5C 252.514,375.757 252.18,394.09 252.5,412.5C 252.5,413.167 252.167,413.5 251.5,413.5C 232.8,394.134 214.466,374.468 196.5,354.5C 200.444,352.036 204.777,350.37 209.5,349.5 Z"/></g>
<g><path style="opacity:1" fill="#f09169" d="M 295.5,350.5 C 300.863,352.276 305.863,354.61 310.5,357.5C 291.167,375.833 271.833,394.167 252.5,412.5C 252.18,394.09 252.514,375.757 253.5,357.5C 261.214,357.705 268.881,357.205 276.5,356C 282.822,354.058 289.156,352.225 295.5,350.5 Z"/></g>
<g><path style="opacity:0.997" fill="#243047" d="M 196.5,354.5 C 214.466,374.468 232.8,394.134 251.5,413.5C 251.066,446.165 250.733,478.832 250.5,511.5C 244.833,511.5 239.167,511.5 233.5,511.5C 186.965,507.1 144.632,491.434 106.5,464.5C 110.743,446.02 117.743,428.686 127.5,412.5C 131.752,406.401 136.252,400.401 141,394.5C 156.348,376.632 174.848,363.298 196.5,354.5 Z"/></g>
<g><path style="opacity:0.998" fill="#1b2535" d="M 310.5,357.5 C 315.464,358.949 320.131,361.115 324.5,364C 345.784,378.116 363.117,395.949 376.5,417.5C 379.988,425.145 383.488,432.812 387,440.5C 391.049,450.14 393.549,460.14 394.5,470.5C 370.455,486.847 344.121,498.347 315.5,505C 302.785,507.73 290.118,509.896 277.5,511.5C 268.5,511.5 259.5,511.5 250.5,511.5C 250.733,478.832 251.066,446.165 251.5,413.5C 252.167,413.5 252.5,413.167 252.5,412.5C 271.833,394.167 291.167,375.833 310.5,357.5 Z"/></g>
</svg>
