<?xml version="1.0" encoding="UTF-8"?>
<!DOCTYPE svg PUBLIC "-//W3C//DTD SVG 1.1//EN" "http://www.w3.org/Graphics/SVG/1.1/DTD/svg11.dtd">
<svg xmlns="http://www.w3.org/2000/svg" version="1.1" width="302px" height="478px" style="shape-rendering:geometricPrecision; text-rendering:geometricPrecision; image-rendering:optimizeQuality; fill-rule:evenodd; clip-rule:evenodd" xmlns:xlink="http://www.w3.org/1999/xlink">
<g><path style="opacity:0.983" fill="#fefefe" d="M 149.5,-0.5 C 150.167,-0.5 150.833,-0.5 151.5,-0.5C 154.266,41.5642 158.099,83.5642 163,125.5C 163.815,131.203 164.815,136.87 166,142.5C 167.714,136.088 169.048,136.421 170,143.5C 171.156,151.449 171.822,159.449 172,167.5C 172.543,173.002 173.71,178.335 175.5,183.5C 180.5,183.5 185.5,183.5 190.5,183.5C 190.027,169.714 191.027,156.047 193.5,142.5C 195.124,142.36 196.29,143.027 197,144.5C 199.01,157.747 200.01,171.08 200,184.5C 200.806,187.446 202.139,190.112 204,192.5C 205.093,186.516 206.093,180.516 207,174.5C 207.26,172.382 208.26,170.716 210,169.5C 211.094,151.852 211.76,134.185 212,116.5C 212.173,112.281 213.173,108.281 215,104.5C 215.797,130.201 217.13,155.868 219,181.5C 219.079,177.642 219.746,173.976 221,170.5C 222.731,181.977 224.231,193.477 225.5,205C 225.37,206.059 224.87,206.892 224,207.5C 223.333,213.5 223.333,219.5 224,225.5C 233.919,241.668 243.585,258.002 253,274.5C 253.638,277.93 252.138,279.263 248.5,278.5C 248.5,309.5 248.5,340.5 248.5,371.5C 253.167,371.5 257.833,371.5 262.5,371.5C 262.766,367.429 262.433,363.429 261.5,359.5C 265.495,344.024 268.662,328.357 271,312.5C 271.48,298.123 272.48,283.789 274,269.5C 274.667,270.833 275.333,272.167 276,273.5C 277.083,286.537 277.749,299.537 278,312.5C 280.455,328.485 283.622,344.318 287.5,360C 286.1,368.862 286.266,377.696 288,386.5C 290.943,394.662 294.276,402.662 298,410.5C 299.752,415.841 300.919,421.174 301.5,426.5C 301.5,441.833 301.5,457.167 301.5,472.5C 300.549,473.919 300.216,475.585 300.5,477.5C 200.5,477.5 100.5,477.5 0.5,477.5C 0.810002,474.287 0.476669,471.287 -0.5,468.5C -0.5,454.5 -0.5,440.5 -0.5,426.5C 1.38239,414.688 5.21572,403.355 11,392.5C 14.4542,381.871 15.2875,371.038 13.5,360C 17.3766,344.324 20.5432,328.491 23,312.5C 23.6469,296.563 24.4802,280.563 25.5,264.5C 26.8655,267.687 27.6988,271.02 28,274.5C 29.3136,287.51 29.9803,300.51 30,313.5C 32.9297,329.052 36.0964,344.552 39.5,360C 38.7952,363.804 38.4619,367.637 38.5,371.5C 43.1667,371.5 47.8333,371.5 52.5,371.5C 52.5,340.5 52.5,309.5 52.5,278.5C 48.8622,279.263 47.3622,277.93 48,274.5C 57.6667,258.167 67.3333,241.833 77,225.5C 77.6667,219.5 77.6667,213.5 77,207.5C 76.1301,206.892 75.6301,206.059 75.5,205C 76.9005,192.831 78.4005,180.664 80,168.5C 80.3333,168.833 80.6667,169.167 81,169.5C 81.3333,173.167 81.6667,176.833 82,180.5C 82.3333,180.167 82.6667,179.833 83,179.5C 83.8333,160.166 84.6667,140.833 85.5,121.5C 85.3558,112.439 84.8558,103.439 84,94.5C 85.893,97.618 87.2264,100.951 88,104.5C 89.108,126.826 90.108,149.159 91,171.5C 91.8357,168.059 92.669,167.892 93.5,171C 94.5446,178.192 95.7113,185.358 97,192.5C 98.8605,190.112 100.194,187.446 101,184.5C 101.333,174.833 101.667,165.167 102,155.5C 103.814,144.913 104.981,134.247 105.5,123.5C 106.425,135.904 107.925,148.237 110,160.5C 110.5,168.159 110.666,175.826 110.5,183.5C 115.544,183.827 120.544,183.494 125.5,182.5C 127.453,177.689 128.619,172.689 129,167.5C 129.178,159.449 129.844,151.449 131,143.5C 131.36,141.392 132.027,139.392 133,137.5C 134.044,138.623 134.71,139.956 135,141.5C 141.88,94.3649 146.713,47.0315 149.5,-0.5 Z M 150.5,384.5 C 151.495,396.655 151.829,408.989 151.5,421.5C 142.827,421.666 134.16,421.5 125.5,421C 126.466,408.43 131.466,397.764 140.5,389C 143.815,387.17 147.149,385.67 150.5,384.5 Z M 156.5,385.5 C 164.136,387.29 169.97,391.623 174,398.5C 177.694,405.746 179.86,413.413 180.5,421.5C 172.5,421.5 164.5,421.5 156.5,421.5C 156.5,409.5 156.5,397.5 156.5,385.5 Z M 125.5,426.5 C 134.167,426.5 142.833,426.5 151.5,426.5C 151.5,441.167 151.5,455.833 151.5,470.5C 142.833,470.5 134.167,470.5 125.5,470.5C 125.5,455.833 125.5,441.167 125.5,426.5 Z M 156.5,426.5 C 164.5,426.5 172.5,426.5 180.5,426.5C 180.5,441.167 180.5,455.833 180.5,470.5C 172.5,470.5 164.5,470.5 156.5,470.5C 156.5,455.833 156.5,441.167 156.5,426.5 Z"/></g>
</svg>
