<?xml version="1.0" encoding="UTF-8"?>
<!DOCTYPE svg PUBLIC "-//W3C//DTD SVG 1.1//EN" "http://www.w3.org/Graphics/SVG/1.1/DTD/svg11.dtd">
<svg xmlns="http://www.w3.org/2000/svg" version="1.1" width="948px" height="796px" style="shape-rendering:geometricPrecision; text-rendering:geometricPrecision; image-rendering:optimizeQuality; fill-rule:evenodd; clip-rule:evenodd" xmlns:xlink="http://www.w3.org/1999/xlink">
<g><path style="opacity:0.984" fill="#2f3377" d="M 445.5,-0.5 C 446.833,-0.5 448.167,-0.5 449.5,-0.5C 506.218,-0.121173 560.552,11.7122 612.5,35C 642.316,49.1441 668.483,68.3107 691,92.5C 725.548,133.883 735.882,180.883 722,233.5C 709.686,274.139 686.186,306.639 651.5,331C 609.389,359.154 563.056,376.487 512.5,383C 451.077,391.485 390.41,387.818 330.5,372C 284.261,359.476 244.427,336.31 211,302.5C 168.418,253.372 157.084,197.705 177,135.5C 191.59,103.574 213.424,77.7406 242.5,58C 286.936,28.9611 335.603,10.9611 388.5,4C 407.583,1.54791 426.583,0.0479095 445.5,-0.5 Z"/></g>
<g><path style="opacity:1" fill="#f5ce32" d="M 418.5,11.5 C 491.596,6.41856 560.596,20.5852 625.5,54C 634.437,59.2733 643.103,64.94 651.5,71C 616.099,88.1215 579.432,91.4549 541.5,81C 525.944,74.7224 510.277,68.7224 494.5,63C 464.03,53.6543 434.696,56.321 406.5,71C 402.167,74 397.833,77 393.5,80C 377.519,81.9123 361.853,85.2456 346.5,90C 338.5,90.6667 330.5,90.6667 322.5,90C 297.188,84.6722 272.521,77.3389 248.5,68C 274.275,49.3878 302.608,35.7211 333.5,27C 361.423,18.7927 389.757,13.6261 418.5,11.5 Z"/></g>
<g><path style="opacity:1" fill="#fdfdfe" d="M 448.5,68.5 C 468.218,67.3435 487.218,70.5101 505.5,78C 541.195,97.0517 578.862,102.385 618.5,94C 633.41,89.6948 648.077,85.0281 662.5,80C 687.315,100.163 704.148,125.663 713,156.5C 713.808,158.579 713.641,160.579 712.5,162.5C 672.819,171.672 634.319,184.338 597,200.5C 562.13,170.315 526.963,140.482 491.5,111C 482.236,103.618 471.736,99.1182 460,97.5C 451.218,97.9827 443.052,100.483 435.5,105C 421.343,115.578 407.01,125.912 392.5,136C 383.265,138.889 373.932,139.223 364.5,137C 360.71,136.23 358.877,134.063 359,130.5C 372.192,116.309 385.692,102.475 399.5,89C 413.988,77.565 430.322,70.7317 448.5,68.5 Z"/></g>
<g><path style="opacity:1" fill="#fdfdfe" d="M 237.5,75.5 C 264.018,86.3949 291.351,94.5616 319.5,100C 328.464,101.384 337.464,101.717 346.5,101C 355.6,99.0782 364.6,96.7449 373.5,94C 375.167,93.3333 376.833,93.3333 378.5,94C 369,104.167 359.5,114.333 350,124.5C 345.558,134.798 348.724,141.964 359.5,146C 377.173,152.546 393.507,150.213 408.5,139C 421.157,127.67 435.157,118.337 450.5,111C 462.218,108.261 472.885,110.595 482.5,118C 518.087,146.916 553.087,176.583 587.5,207C 593.116,210.766 596.449,215.932 597.5,222.5C 594.926,234.296 587.592,239.462 575.5,238C 572.554,237.194 569.888,235.861 567.5,234C 553.875,221.196 539.875,208.863 525.5,197C 521.333,195.833 519.833,197.333 521,201.5C 534.696,214.862 548.029,228.529 561,242.5C 564.199,255.019 559.365,262.852 546.5,266C 541.889,267.007 537.555,266.34 533.5,264C 523.103,252.934 512.103,242.601 500.5,233C 494.88,231.614 493.38,233.448 496,238.5C 506.041,249.539 515.708,260.873 525,272.5C 525.169,278.706 522.335,283.206 516.5,286C 511.924,287.476 507.257,287.81 502.5,287C 492.798,277.63 482.798,268.63 472.5,260C 466.88,258.614 465.38,260.448 468,265.5C 475.833,274 483.667,282.5 491.5,291C 489.232,293.968 486.232,295.634 482.5,296C 473.58,297.604 465.246,296.104 457.5,291.5C 456.488,289.163 456.655,286.83 458,284.5C 460.645,267.825 454.478,255.658 439.5,248C 435.037,246.025 430.371,245.192 425.5,245.5C 426.977,228.602 419.643,217.768 403.5,213C 397.96,212.236 392.46,212.403 387,213.5C 374.687,198.182 359.687,194.848 342,203.5C 328.797,192.355 315.13,191.688 301,201.5C 287.892,193.53 274.059,187.03 259.5,182C 233.81,173.578 207.81,166.412 181.5,160.5C 186.442,136.949 196.942,116.282 213,98.5C 220.761,90.2341 228.927,82.5674 237.5,75.5 Z"/></g>
<g><path style="opacity:1" fill="#f5cf32" d="M 179.5,171.5 C 206.87,177.593 233.87,185.093 260.5,194C 272.421,198.044 283.588,203.544 294,210.5C 290.215,235.203 300.715,247.87 325.5,248.5C 327.979,259.818 334.645,267.651 345.5,272C 350.785,273.026 356.118,273.693 361.5,274C 369.517,287.341 381.184,292.507 396.5,289.5C 410.756,312.172 428.589,315.505 450,299.5C 462.613,307.779 476.113,309.612 490.5,305C 494.599,302.9 498.099,300.067 501,296.5C 513.92,299.416 524.586,295.749 533,285.5C 535.05,282.852 536.216,279.852 536.5,276.5C 551.316,278.005 562.816,272.672 571,260.5C 572.772,256.687 573.605,252.687 573.5,248.5C 589.594,250.543 600.761,244.21 607,229.5C 608.195,222.539 607.362,215.872 604.5,209.5C 640.159,194.613 676.826,182.947 714.5,174.5C 716.968,203.961 709.468,230.628 692,254.5C 668.754,284.07 639.921,306.57 605.5,322C 546.224,347.991 484.224,358.657 419.5,354C 360.018,351.053 305.018,334.053 254.5,303C 225.981,284.818 204.148,260.651 189,230.5C 180.626,211.594 177.46,191.927 179.5,171.5 Z"/></g>
<g><path style="opacity:1" fill="#fcfcfd" d="M 315.5,204.5 C 328.947,203.78 336.447,210.114 338,223.5C 348.271,207.632 360.937,205.299 376,216.5C 378.631,220.089 379.797,224.089 379.5,228.5C 380.873,228.657 382.207,228.49 383.5,228C 391.804,221.021 400.471,220.688 409.5,227C 412.106,228.938 413.939,231.438 415,234.5C 415.597,242.576 415.097,250.576 413.5,258.5C 429.134,251.878 440.634,256.211 448,271.5C 449.818,288.011 442.485,297.011 426,298.5C 419.596,298.632 414.263,296.299 410,291.5C 406.847,286.308 404.68,280.808 403.5,275C 402.5,274.333 401.5,274.333 400.5,275C 388.906,283.614 379.072,281.781 371,269.5C 369.763,265.94 369.263,262.273 369.5,258.5C 365.895,259.963 362.229,261.463 358.5,263C 346.161,263.34 338.328,257.506 335,245.5C 334.935,240.982 334.269,236.649 333,232.5C 325.318,239.917 317.151,240.417 308.5,234C 300.056,221.603 302.389,211.77 315.5,204.5 Z"/></g>
<g><path style="opacity:0.973" fill="#2d3277" d="M 793.5,421.5 C 797.833,421.5 802.167,421.5 806.5,421.5C 806.667,464.501 806.5,507.501 806,550.5C 802.3,575.534 788.134,591.034 763.5,597C 704.007,605.173 676.507,579.339 681,519.5C 682.252,498.151 691.418,481.317 708.5,469C 721.876,462.44 735.876,460.773 750.5,464C 758.9,467.114 765.733,472.281 771,479.5C 771.067,464.779 771.734,450.112 773,435.5C 777.573,427.468 784.406,422.801 793.5,421.5 Z M 738.5,492.5 C 754.885,491.382 765.385,498.715 770,514.5C 774.837,531.645 772.503,547.645 763,562.5C 749.67,573.456 736.67,573.123 724,561.5C 713.769,542.863 713.102,523.863 722,504.5C 725.892,498.151 731.392,494.151 738.5,492.5 Z"/></g>
<g><path style="opacity:0.974" fill="#2d3277" d="M -0.5,596.5 C -0.5,566.833 -0.5,537.167 -0.5,507.5C 9.14201,470.769 32.8087,456.269 70.5,464C 79.0318,467.035 86.3652,471.868 92.5,478.5C 110.4,461.346 131.067,457.179 154.5,466C 169.293,473.063 178.793,484.563 183,500.5C 184.463,532.459 184.963,564.459 184.5,596.5C 174.167,596.5 163.833,596.5 153.5,596.5C 153.941,567.467 153.441,538.467 152,509.5C 147.377,497.267 138.544,492.434 125.5,495C 117.099,497.068 111.599,502.234 109,510.5C 107.55,539.13 107.05,567.797 107.5,596.5C 96.8333,596.5 86.1667,596.5 75.5,596.5C 75.6666,567.831 75.5,539.165 75,510.5C 70.9193,497.534 62.0859,492.367 48.5,495C 39.6667,497.167 34.1667,502.667 32,511.5C 31.5,539.831 31.3334,568.165 31.5,596.5C 20.8333,596.5 10.1667,596.5 -0.5,596.5 Z"/></g>
<g><path style="opacity:0.972" fill="#2d3277" d="M 607.5,461.5 C 626.045,460.174 643.378,464.008 659.5,473C 665.197,477.892 668.697,484.059 670,491.5C 670.667,514.5 670.667,537.5 670,560.5C 666.979,576.522 657.812,587.355 642.5,593C 625.208,598.22 607.541,599.887 589.5,598C 567.619,594.785 556.286,582.118 555.5,560C 555.513,539.466 565.346,526.3 585,520.5C 599.084,517.552 613.251,515.052 627.5,513C 637.755,508.139 639.088,501.472 631.5,493C 620.49,487.871 609.823,488.371 599.5,494.5C 596.44,497.952 594.44,501.952 593.5,506.5C 582.52,507.499 571.52,507.832 560.5,507.5C 560.381,487.537 569.381,473.703 587.5,466C 594.163,463.831 600.829,462.331 607.5,461.5 Z M 635.5,532.5 C 640.809,556.225 631.476,569.892 607.5,573.5C 592.326,571.151 587.492,562.817 593,548.5C 595.928,544.619 599.761,542.119 604.5,541C 612.5,539.333 620.5,537.667 628.5,536C 631.174,535.33 633.507,534.163 635.5,532.5 Z"/></g>
<g><path style="opacity:0.973" fill="#2d3277" d="M 947.5,517.5 C 947.5,525.833 947.5,534.167 947.5,542.5C 941.066,579.096 919.233,598.096 882,599.5C 846.572,599.294 824.905,581.961 817,547.5C 812.163,522.334 817.497,499.667 833,479.5C 842.494,469.836 853.994,464.003 867.5,462C 911.716,455.773 938.383,474.273 947.5,517.5 Z M 875.5,490.5 C 896.89,489.12 908.724,499.12 911,520.5C 912.234,531.072 911.234,541.405 908,551.5C 901.564,566.136 890.398,571.97 874.5,569C 864.869,566.704 858.369,560.871 855,551.5C 850.334,537.174 850.334,522.841 855,508.5C 858.764,498.887 865.597,492.887 875.5,490.5 Z"/></g>
<g><path style="opacity:0.971" fill="#2d3277" d="M 248.5,462.5 C 302.345,459.153 328.178,484.486 326,538.5C 295.057,540.488 263.89,541.155 232.5,540.5C 234.009,559.677 244.343,569.677 263.5,570.5C 272.378,570.992 279.711,567.992 285.5,561.5C 298.167,560.167 310.833,560.167 323.5,561.5C 315.666,581.828 301,593.995 279.5,598C 252.422,603.083 229.256,595.916 210,576.5C 202.833,566.335 198.833,555.002 198,542.5C 195.332,521.495 199.665,502.161 211,484.5C 221.072,472.886 233.572,465.552 248.5,462.5 Z M 257.5,490.5 C 276.267,489.862 287.267,498.695 290.5,517C 271.503,517.5 252.503,517.667 233.5,517.5C 235.263,502.747 243.263,493.747 257.5,490.5 Z"/></g>
<g><path style="opacity:0.965" fill="#2d3277" d="M 396.5,462.5 C 403.167,462.5 409.833,462.5 416.5,462.5C 416.5,474.167 416.5,485.833 416.5,497.5C 407.669,496.92 399.002,497.753 390.5,500C 381.24,505.007 376.406,512.84 376,523.5C 375.5,547.831 375.333,572.164 375.5,596.5C 363.833,596.5 352.167,596.5 340.5,596.5C 340.333,570.831 340.5,545.165 341,519.5C 345.216,486.452 363.716,467.452 396.5,462.5 Z"/></g>
<g><path style="opacity:0.968" fill="#2d3277" d="M 472.5,462.5 C 488.254,461.148 503.587,462.982 518.5,468C 536.767,477 546.1,491.833 546.5,512.5C 534.149,512.832 521.815,512.499 509.5,511.5C 505.926,496.111 496.26,489.611 480.5,492C 468.712,495.352 461.879,503.186 460,515.5C 456.868,530.767 458.535,545.433 465,559.5C 472.348,568.616 481.848,571.783 493.5,569C 499.501,567.664 503.668,564.164 506,558.5C 507.38,554.695 508.547,550.862 509.5,547C 521.829,546.5 534.162,546.333 546.5,546.5C 540.392,580.923 519.725,598.59 484.5,599.5C 446.747,598.911 425.58,579.911 421,542.5C 419.108,524.292 422.108,506.959 430,490.5C 440.044,474.739 454.21,465.406 472.5,462.5 Z"/></g>
<g><path style="opacity:0.965" fill="#2d3277" d="M 279.5,618.5 C 282.833,618.5 286.167,618.5 289.5,618.5C 289.5,676.5 289.5,734.5 289.5,792.5C 278.5,792.5 267.5,792.5 256.5,792.5C 256.333,740.832 256.5,689.166 257,637.5C 258.243,632.588 260.743,628.421 264.5,625C 269.29,622.133 274.29,619.967 279.5,618.5 Z"/></g>
<g><path style="opacity:0.971" fill="#2d3277" d="M 314.5,618.5 C 326.167,618.5 337.833,618.5 349.5,618.5C 349.5,629.833 349.5,641.167 349.5,652.5C 337.833,652.5 326.167,652.5 314.5,652.5C 314.5,641.167 314.5,629.833 314.5,618.5 Z"/></g>
<g><path style="opacity:0.967" fill="#2d3277" d="M 546.5,659.5 C 551.167,659.5 555.833,659.5 560.5,659.5C 560.5,671.5 560.5,683.5 560.5,695.5C 551.281,693.838 542.281,694.671 533.5,698C 524.415,704 519.915,712.5 520,723.5C 519.5,746.498 519.333,769.498 519.5,792.5C 507.833,792.5 496.167,792.5 484.5,792.5C 484.333,768.164 484.5,743.831 485,719.5C 489.234,682.765 509.734,662.765 546.5,659.5 Z"/></g>
<g><path style="opacity:0.967" fill="#2d3277" d="M 639.5,795.5 C 631.833,795.5 624.167,795.5 616.5,795.5C 579.927,788.248 562.26,765.915 563.5,728.5C 562.791,685.198 583.958,662.198 627,659.5C 664.954,660.455 685.954,679.788 690,717.5C 690.5,724.158 690.666,730.825 690.5,737.5C 659.5,737.5 628.5,737.5 597.5,737.5C 601.076,761.301 614.743,770.801 638.5,766C 643.914,764.59 648.247,761.59 651.5,757C 663.495,756.5 675.495,756.333 687.5,756.5C 683.11,772.068 673.444,783.235 658.5,790C 652.183,792.325 645.85,794.158 639.5,795.5 Z M 618.5,688.5 C 631.275,686.145 641.775,689.811 650,699.5C 652.897,704.088 654.397,709.088 654.5,714.5C 635.833,714.5 617.167,714.5 598.5,714.5C 600.376,701.978 607.043,693.311 618.5,688.5 Z"/></g>
<g><path style="opacity:0.984" fill="#2d3277" d="M 314.5,663.5 C 326.167,663.5 337.833,663.5 349.5,663.5C 349.5,706.5 349.5,749.5 349.5,792.5C 337.833,792.5 326.167,792.5 314.5,792.5C 314.5,749.5 314.5,706.5 314.5,663.5 Z"/></g>
<g><path style="opacity:0.971" fill="#2d3277" d="M 360.5,663.5 C 372.833,663.5 385.167,663.5 397.5,663.5C 405.351,692.903 413.518,722.236 422,751.5C 429.562,723.581 437.896,695.914 447,668.5C 448.731,666.383 450.898,664.883 453.5,664C 464.182,663.168 474.849,663.334 485.5,664.5C 470.697,706.909 455.697,749.242 440.5,791.5C 428.518,792.499 416.518,792.832 404.5,792.5C 389.833,749.5 375.167,706.5 360.5,663.5 Z"/></g>
</svg>
