<?xml version="1.0" encoding="UTF-8"?>
<!DOCTYPE svg PUBLIC "-//W3C//DTD SVG 1.1//EN" "http://www.w3.org/Graphics/SVG/1.1/DTD/svg11.dtd">
<svg xmlns="http://www.w3.org/2000/svg" version="1.1" width="948px" height="796px" style="shape-rendering:geometricPrecision; text-rendering:geometricPrecision; image-rendering:optimizeQuality; fill-rule:evenodd; clip-rule:evenodd" xmlns:xlink="http://www.w3.org/1999/xlink">
<g><path style="opacity:0.997" fill="#2e3377" d="M 440.5,-0.5 C 452.833,-0.5 465.167,-0.5 477.5,-0.5C 531.25,4.52472 582.25,19.3581 630.5,44C 662.814,61.9825 688.981,86.4825 709,117.5C 726.028,148.074 731.695,180.741 726,215.5C 718.285,256.773 698.785,291.273 667.5,319C 618.296,357.577 562.296,379.577 499.5,385C 427.474,393.622 357.807,384.622 290.5,358C 259.048,344.028 231.548,324.528 208,299.5C 167.111,250.379 156.777,195.379 177,134.5C 188.891,108.932 205.725,87.0982 227.5,69C 267.751,37.8846 313.084,17.5513 363.5,8C 389.072,2.91104 414.739,0.0777041 440.5,-0.5 Z"/></g>
<g><path style="opacity:1" fill="#f5cf32" d="M 431.5,10.5 C 504.536,8.00987 572.869,24.5099 636.5,60C 641.758,63.127 646.425,66.9603 650.5,71.5C 635.307,78.8011 619.307,83.6345 602.5,86C 581.06,88.189 560.06,86.189 539.5,80C 523.275,73.7218 506.942,67.7218 490.5,62C 455.164,52.6091 422.831,58.6091 393.5,80C 377.666,82.5419 361.999,85.8753 346.5,90C 329.466,91.186 312.8,89.186 296.5,84C 280.969,79.6008 265.636,74.6008 250.5,69C 249.833,68.3333 249.167,67.6667 248.5,67C 288.707,40.5782 332.707,23.5782 380.5,16C 397.573,13.4051 414.573,11.5717 431.5,10.5 Z"/></g>
<g><path style="opacity:0.999" fill="#fefefe" d="M 447.5,68.5 C 468.549,67.8098 488.883,71.3098 508.5,79C 544.437,97.5872 582.104,102.254 621.5,93C 634.612,88.796 647.612,84.296 660.5,79.5C 681.32,95.4942 697.154,115.494 708,139.5C 711.388,147.16 713.221,155.16 713.5,163.5C 673.564,171.812 634.897,184.145 597.5,200.5C 563.98,171.812 530.313,143.312 496.5,115C 487.396,107.281 477.063,101.948 465.5,99C 456.406,97.6014 447.739,98.9347 439.5,103C 423.833,114 408.167,125 392.5,136C 380.988,141.076 369.988,140.243 359.5,133.5C 358.479,132.998 358.312,132.332 359,131.5C 369.798,119.033 380.965,106.867 392.5,95C 408.034,80.2322 426.367,71.3989 447.5,68.5 Z"/></g>
<g><path style="opacity:0.999" fill="#fefefe" d="M 236.5,75.5 C 263.399,86.1879 291.066,94.3546 319.5,100C 327.136,101.236 334.803,101.57 342.5,101C 354.564,98.6471 366.564,96.3138 378.5,94C 367.59,104.906 357.423,116.406 348,128.5C 346.752,134.84 348.919,139.673 354.5,143C 367.715,150.301 381.382,151.301 395.5,146C 402.498,142.503 409.165,138.503 415.5,134C 425.796,124.848 437.129,117.181 449.5,111C 456.956,108.788 464.289,109.122 471.5,112C 481.992,117.496 491.659,124.163 500.5,132C 529.167,156.667 557.833,181.333 586.5,206C 590.036,209.201 593.203,212.701 596,216.5C 598.434,229.763 592.767,237.097 579,238.5C 574.85,237.784 571.017,236.284 567.5,234C 554.167,222 540.833,210 527.5,198C 524.545,195.709 522.212,196.209 520.5,199.5C 522.138,202.304 523.971,204.971 526,207.5C 536.696,218.53 547.696,229.197 559,239.5C 565.281,252.457 561.448,261.29 547.5,266C 540.19,267.183 533.857,265.183 528.5,260C 519.435,250.266 509.769,241.266 499.5,233C 497.08,232.085 495.747,232.918 495.5,235.5C 495.719,236.938 496.219,238.271 497,239.5C 504.962,249.131 513.296,258.464 522,267.5C 527.288,277.283 524.454,283.783 513.5,287C 508.56,288.041 503.894,287.374 499.5,285C 491.06,275.554 481.727,267.221 471.5,260C 469.393,259.146 468.059,259.812 467.5,262C 468.278,264.39 469.445,266.557 471,268.5C 477.887,275.716 484.387,283.216 490.5,291C 488.177,294.502 484.844,296.502 480.5,297C 472.578,296.771 464.911,295.105 457.5,292C 456.919,291.107 456.585,290.107 456.5,289C 462.264,263.028 451.931,248.528 425.5,245.5C 426.998,229.636 420.332,219.136 405.5,214C 398.809,213.831 392.142,213.331 385.5,212.5C 378.892,203.361 369.892,198.695 358.5,198.5C 352.767,199.862 347.101,201.529 341.5,203.5C 338.385,201.561 335.385,199.394 332.5,197C 325.96,194.146 319.293,193.813 312.5,196C 308.453,197.44 304.62,199.274 301,201.5C 284.952,192.261 268.119,184.761 250.5,179C 227.833,172.667 205.167,166.333 182.5,160C 181.941,159.275 181.608,158.442 181.5,157.5C 187.989,134.516 199.156,114.182 215,96.5C 222.062,89.2701 229.229,82.2701 236.5,75.5 Z"/></g>
<g><path style="opacity:1" fill="#f6cf32" d="M 179.5,171.5 C 202.025,176.548 224.359,182.381 246.5,189C 262.899,194.2 278.565,201.034 293.5,209.5C 289.713,234.381 300.38,247.714 325.5,249.5C 331.527,266.82 343.861,275.154 362.5,274.5C 370.029,287.513 381.196,292.513 396,289.5C 406.494,306.665 421.328,312.165 440.5,306C 443.941,304.224 447.108,302.057 450,299.5C 460.365,305.549 471.531,308.049 483.5,307C 489.73,305.553 495.064,302.553 499.5,298C 507.75,297.965 515.75,296.632 523.5,294C 529.24,289.256 533.906,283.59 537.5,277C 551.199,277.559 562.033,272.392 570,261.5C 571.717,257.457 572.883,253.29 573.5,249C 600.891,248.328 611.558,234.995 605.5,209C 641.092,194.101 677.759,182.601 715.5,174.5C 717.395,199.254 711.895,222.254 699,243.5C 679.327,273.756 653.494,297.256 621.5,314C 565.997,341.769 507.164,355.269 445,354.5C 389.713,354.802 336.88,343.635 286.5,321C 258.3,307.471 233.466,289.304 212,266.5C 188.114,239.342 177.28,207.675 179.5,171.5 Z"/></g>
<g><path style="opacity:0.999" fill="#fdfdfd" d="M 316.5,204.5 C 324.126,203.514 329.959,206.18 334,212.5C 335.637,215.717 336.97,219.05 338,222.5C 345.859,211.326 356.359,207.492 369.5,211C 375.182,215.508 379.015,221.341 381,228.5C 392.306,220.119 402.973,220.786 413,230.5C 413.667,231.833 414.333,233.167 415,234.5C 415.223,242.166 415.056,249.832 414.5,257.5C 428.531,252.286 439.365,255.953 447,268.5C 450.523,283.624 445.023,293.79 430.5,299C 414.434,299.436 405.767,291.603 404.5,275.5C 400.396,275.884 396.729,277.384 393.5,280C 378.6,281.268 370.6,274.435 369.5,259.5C 364.604,261.108 359.604,262.441 354.5,263.5C 344.294,262.139 337.794,256.472 335,246.5C 334.935,241.982 334.269,237.649 333,233.5C 319.958,242.263 310.291,239.597 304,225.5C 302.565,215.021 306.732,208.021 316.5,204.5 Z"/></g>
<g><path style="opacity:0.983" fill="#fefefe" d="M 792.5,421.5 C 797.167,421.5 801.833,421.5 806.5,421.5C 806.667,465.835 806.5,510.168 806,554.5C 800.491,577.342 786.324,591.509 763.5,597C 701.404,605.239 673.904,578.072 681,515.5C 683.456,497.752 691.289,482.919 704.5,471C 713.425,464.435 723.425,461.602 734.5,462.5C 742.948,461.756 750.948,463.256 758.5,467C 762.034,470.869 765.867,474.369 770,477.5C 770.119,464.126 770.785,450.793 772,437.5C 775.832,428.152 782.665,422.819 792.5,421.5 Z M 736.5,493.5 C 750.979,491.322 761.479,496.655 768,509.5C 774.333,527.498 772.666,544.831 763,561.5C 750.333,573.5 737.667,573.5 725,561.5C 717.102,549.682 714.436,536.682 717,522.5C 717.586,508.613 724.086,498.946 736.5,493.5 Z"/></g>
<g><path style="opacity:0.982" fill="#fefefe" d="M 947.5,516.5 C 947.5,525.833 947.5,535.167 947.5,544.5C 938.961,584.17 914.295,602.336 873.5,599C 844.406,596.246 825.906,580.746 818,552.5C 811.296,526.697 815.629,503.03 831,481.5C 844.356,466.928 861.023,459.928 881,460.5C 918.429,461.269 940.596,479.936 947.5,516.5 Z M 874.5,491.5 C 892.399,488.913 903.899,496.246 909,513.5C 913.377,530.196 911.044,545.863 902,560.5C 899.292,564.104 895.792,566.604 891.5,568C 870.456,572.568 857.623,564.402 853,543.5C 851.911,532.043 852.578,520.71 855,509.5C 858.545,500.116 865.045,494.116 874.5,491.5 Z"/></g>
<g><path style="opacity:0.988" fill="#fefefe" d="M -0.5,597.5 C -0.5,566.5 -0.5,535.5 -0.5,504.5C 5.39268,481.443 20.0593,467.277 43.5,462C 56.5797,459.815 68.913,461.815 80.5,468C 84.3562,471.357 88.3562,474.524 92.5,477.5C 119.857,454.436 146.69,455.102 173,479.5C 178.532,486.233 182.199,493.899 184,502.5C 184.5,533.832 184.667,565.165 184.5,596.5C 174.167,596.5 163.833,596.5 153.5,596.5C 153.91,568.474 153.41,540.474 152,512.5C 149.656,501.161 142.656,495.161 131,494.5C 119.025,495.476 111.692,501.809 109,513.5C 107.58,541.472 107.08,569.472 107.5,597.5C 97.1221,597.804 86.7888,597.304 76.5,596C 76,595.5 75.5,595 75,594.5C 75.9999,565.826 75.6666,537.159 74,508.5C 70.373,499.672 63.7063,495.005 54,494.5C 38.7009,496.463 31.3676,505.13 32,520.5C 31.438,545.183 31.438,569.85 32,594.5C 29.4926,596.155 26.6592,596.989 23.5,597C 15.5069,597.5 7.50694,597.666 -0.5,597.5 Z"/></g>
<g><path style="opacity:0.981" fill="#fefefe" d="M 614.5,460.5 C 630.08,460.895 644.747,464.728 658.5,472C 664.222,476.617 668.056,482.45 670,489.5C 670.667,513.833 670.667,538.167 670,562.5C 663.756,581.735 650.589,593.235 630.5,597C 615.87,598.54 601.203,598.873 586.5,598C 562.41,591.357 552.243,575.524 556,550.5C 559.003,536.983 566.836,527.483 579.5,522C 594.584,517.797 609.917,514.797 625.5,513C 633.974,511.542 637.141,506.708 635,498.5C 633.878,496.376 632.378,494.543 630.5,493C 620.33,489.383 610.33,489.717 600.5,494C 596.278,497.495 594.278,501.995 594.5,507.5C 583.167,507.5 571.833,507.5 560.5,507.5C 560.618,485.219 571.284,470.719 592.5,464C 599.894,462.302 607.228,461.135 614.5,460.5 Z M 633.5,533.5 C 639.873,560.654 628.873,573.487 600.5,572C 592.085,567.652 589.252,560.819 592,551.5C 594.327,546.577 598.16,543.41 603.5,542C 610.804,540.206 618.138,538.539 625.5,537C 628.476,536.295 631.142,535.129 633.5,533.5 Z"/></g>
<g><path style="opacity:0.982" fill="#fefefe" d="M 249.5,462.5 C 278.805,457.585 301.638,467.251 318,491.5C 324.807,507.081 327.64,523.415 326.5,540.5C 295.5,540.5 264.5,540.5 233.5,540.5C 233.258,555.849 240.591,565.349 255.5,569C 262.567,569.839 269.567,569.506 276.5,568C 280.5,565.333 284.5,562.667 288.5,560C 300.162,559.5 311.829,559.333 323.5,559.5C 322.652,565.866 320.152,571.533 316,576.5C 297.07,597.142 273.903,604.309 246.5,598C 232.438,594.389 220.271,587.556 210,577.5C 203.043,567.635 199.043,556.635 198,544.5C 194.875,523.798 198.541,504.464 209,486.5C 219.313,472.934 232.813,464.934 249.5,462.5 Z M 254.5,491.5 C 274.796,488.818 286.463,497.485 289.5,517.5C 271.167,517.5 252.833,517.5 234.5,517.5C 235.542,504.463 242.209,495.797 254.5,491.5 Z"/></g>
<g><path style="opacity:0.986" fill="#fefefe" d="M 395.5,462.5 C 402.5,462.5 409.5,462.5 416.5,462.5C 416.5,474.167 416.5,485.833 416.5,497.5C 388.34,493.974 374.84,506.307 376,534.5C 375.484,554.514 375.484,574.514 376,594.5C 373.493,596.155 370.659,596.989 367.5,597C 358.465,597.748 349.465,597.581 340.5,596.5C 340.333,569.498 340.5,542.498 341,515.5C 346.954,485.043 365.121,467.376 395.5,462.5 Z"/></g>
<g><path style="opacity:0.98" fill="#fefefe" d="M 469.5,462.5 C 482.202,462.208 494.869,462.708 507.5,464C 528.333,468.833 541.167,481.667 546,502.5C 546.498,505.817 546.665,509.15 546.5,512.5C 533.833,512.5 521.167,512.5 508.5,512.5C 506.085,496.437 496.752,489.937 480.5,493C 470.271,496.23 463.771,503.063 461,513.5C 457.624,528.419 458.624,543.085 464,557.5C 471.516,568.099 481.683,571.599 494.5,568C 499.185,566.65 502.685,563.817 505,559.5C 506.509,554.973 508.009,550.473 509.5,546C 520.167,545.333 530.833,545.333 541.5,546C 544.77,546.124 546.437,547.791 546.5,551C 538.381,582.407 518.048,598.573 485.5,599.5C 448.582,599.739 427.082,581.739 421,545.5C 417.973,525.323 421.307,506.323 431,488.5C 440.489,474.838 453.323,466.171 469.5,462.5 Z"/></g>
<g><path style="opacity:0.998" fill="#fefefe" d="M 277.5,618.5 C 281.5,618.5 285.5,618.5 289.5,618.5C 289.5,676.5 289.5,734.5 289.5,792.5C 278.5,792.5 267.5,792.5 256.5,792.5C 256.333,740.499 256.5,688.499 257,636.5C 260.621,626.705 267.454,620.705 277.5,618.5 Z"/></g>
<g><path style="opacity:0.999" fill="#fefefe" d="M 314.5,618.5 C 326.167,618.5 337.833,618.5 349.5,618.5C 349.5,629.833 349.5,641.167 349.5,652.5C 337.833,652.5 326.167,652.5 314.5,652.5C 314.5,641.167 314.5,629.833 314.5,618.5 Z"/></g>
<g><path style="opacity:0.989" fill="#fefefe" d="M 541.5,659.5 C 547.833,659.5 554.167,659.5 560.5,659.5C 560.5,671.5 560.5,683.5 560.5,695.5C 532.915,691.927 519.415,703.927 520,731.5C 519.5,751.831 519.333,772.164 519.5,792.5C 507.833,792.5 496.167,792.5 484.5,792.5C 484.333,766.831 484.5,741.165 485,715.5C 489.767,682.566 508.601,663.899 541.5,659.5 Z"/></g>
<g><path style="opacity:0.984" fill="#fefefe" d="M 643.5,795.5 C 634.833,795.5 626.167,795.5 617.5,795.5C 601.266,792.299 587.099,784.965 575,773.5C 568.169,764.343 564.502,754.01 564,742.5C 560.567,721.886 563.9,702.553 574,684.5C 589.767,665.901 609.934,657.401 634.5,659C 661.778,662.621 679.612,677.455 688,703.5C 690.447,714.432 691.281,725.432 690.5,736.5C 659.841,737.5 629.174,737.833 598.5,737.5C 598.747,752.502 606.08,762.002 620.5,766C 628.827,767.315 636.827,766.315 644.5,763C 647.167,761.667 649.167,759.667 650.5,757C 662.829,756.5 675.162,756.333 687.5,756.5C 687.592,760.059 686.759,763.392 685,766.5C 675.079,781.945 661.245,791.611 643.5,795.5 Z M 617.5,689.5 C 632.606,685.911 644.106,690.578 652,703.5C 653.108,707.086 653.608,710.753 653.5,714.5C 635.5,714.5 617.5,714.5 599.5,714.5C 600.142,702.207 606.142,693.874 617.5,689.5 Z"/></g>
<g><path style="opacity:0.98" fill="#fefefe" d="M 457.5,662.5 C 466.833,662.5 476.167,662.5 485.5,662.5C 471.031,705.908 456.364,749.241 441.5,792.5C 429.149,792.832 416.815,792.499 404.5,791.5C 389.254,749.013 374.587,706.347 360.5,663.5C 372.833,663.5 385.167,663.5 397.5,663.5C 405.214,691.69 413.547,719.69 422.5,747.5C 429.511,723.121 436.678,698.788 444,674.5C 446.221,667.77 450.721,663.77 457.5,662.5 Z"/></g>
<g><path style="opacity:1" fill="#fefffe" d="M 314.5,663.5 C 326.167,663.5 337.833,663.5 349.5,663.5C 349.5,706.5 349.5,749.5 349.5,792.5C 337.833,792.5 326.167,792.5 314.5,792.5C 314.5,749.5 314.5,706.5 314.5,663.5 Z"/></g>
</svg>
