<?xml version="1.0" encoding="UTF-8"?>
<!DOCTYPE svg PUBLIC "-//W3C//DTD SVG 1.1//EN" "http://www.w3.org/Graphics/SVG/1.1/DTD/svg11.dtd">
<svg xmlns="http://www.w3.org/2000/svg" version="1.1" width="560px" height="389px" style="shape-rendering:geometricPrecision; text-rendering:geometricPrecision; image-rendering:optimizeQuality; fill-rule:evenodd; clip-rule:evenodd" xmlns:xlink="http://www.w3.org/1999/xlink">
<g><path style="opacity:0.997" fill="#2e3377" d="M 272.5,-0.5 C 284.833,-0.5 297.167,-0.5 309.5,-0.5C 363.25,4.52472 414.25,19.3581 462.5,44C 493.06,60.8939 518.227,83.7272 538,112.5C 548.58,128.327 555.246,145.66 558,164.5C 565.445,226.406 545.945,277.906 499.5,319C 450.296,357.577 394.296,379.577 331.5,385C 263.279,393.079 196.946,385.412 132.5,362C 94.1804,347.331 61.6804,324.498 35,293.5C 15.1623,268.831 3.32897,240.831 -0.5,209.5C -0.5,195.833 -0.5,182.167 -0.5,168.5C 6.00444,131.665 23.3378,100.832 51.5,76C 84.122,47.682 121.455,27.682 163.5,16C 199.267,5.70306 235.601,0.203063 272.5,-0.5 Z"/></g>
<g><path style="opacity:1" fill="#f5cf32" d="M 263.5,10.5 C 336.536,8.00987 404.869,24.5099 468.5,60C 473.758,63.127 478.425,66.9603 482.5,71.5C 467.307,78.8011 451.307,83.6345 434.5,86C 413.06,88.189 392.06,86.189 371.5,80C 355.275,73.7218 338.942,67.7218 322.5,62C 287.164,52.6091 254.831,58.6091 225.5,80C 209.666,82.5419 193.999,85.8753 178.5,90C 161.466,91.186 144.8,89.186 128.5,84C 112.969,79.6008 97.6359,74.6008 82.5,69C 81.8333,68.3333 81.1667,67.6667 80.5,67C 120.707,40.5782 164.707,23.5782 212.5,16C 229.573,13.4051 246.573,11.5717 263.5,10.5 Z"/></g>
<g><path style="opacity:0.999" fill="#fefefe" d="M 279.5,68.5 C 300.549,67.8098 320.883,71.3098 340.5,79C 376.437,97.5872 414.104,102.254 453.5,93C 466.612,88.796 479.612,84.296 492.5,79.5C 513.32,95.4942 529.154,115.494 540,139.5C 543.388,147.16 545.221,155.16 545.5,163.5C 505.564,171.812 466.897,184.145 429.5,200.5C 395.98,171.812 362.313,143.312 328.5,115C 319.396,107.281 309.063,101.948 297.5,99C 288.406,97.6014 279.739,98.9347 271.5,103C 255.833,114 240.167,125 224.5,136C 212.988,141.076 201.988,140.243 191.5,133.5C 190.479,132.998 190.312,132.332 191,131.5C 201.798,119.033 212.965,106.867 224.5,95C 240.034,80.2322 258.367,71.3989 279.5,68.5 Z"/></g>
<g><path style="opacity:0.999" fill="#fefefe" d="M 68.5,75.5 C 95.3995,86.1879 123.066,94.3546 151.5,100C 159.136,101.236 166.803,101.57 174.5,101C 186.564,98.6471 198.564,96.3138 210.5,94C 199.59,104.906 189.423,116.406 180,128.5C 178.752,134.84 180.919,139.673 186.5,143C 199.715,150.301 213.382,151.301 227.5,146C 234.498,142.503 241.165,138.503 247.5,134C 257.796,124.848 269.129,117.181 281.5,111C 288.956,108.788 296.289,109.122 303.5,112C 313.992,117.496 323.659,124.163 332.5,132C 361.167,156.667 389.833,181.333 418.5,206C 422.036,209.201 425.203,212.701 428,216.5C 430.434,229.763 424.767,237.097 411,238.5C 406.85,237.784 403.017,236.284 399.5,234C 386.167,222 372.833,210 359.5,198C 356.545,195.709 354.212,196.209 352.5,199.5C 354.138,202.304 355.971,204.971 358,207.5C 368.696,218.53 379.696,229.197 391,239.5C 397.281,252.457 393.448,261.29 379.5,266C 372.19,267.183 365.857,265.183 360.5,260C 352.473,251.973 344.473,243.973 336.5,236C 334.189,233.836 331.522,232.836 328.5,233C 327.251,235.21 327.418,237.376 329,239.5C 336.962,249.131 345.296,258.464 354,267.5C 359.288,277.283 356.454,283.783 345.5,287C 340.56,288.041 335.894,287.374 331.5,285C 323.06,275.554 313.727,267.221 303.5,260C 301.393,259.146 300.059,259.812 299.5,262C 300.278,264.39 301.445,266.557 303,268.5C 309.887,275.716 316.387,283.216 322.5,291C 320.177,294.502 316.844,296.502 312.5,297C 304.578,296.771 296.911,295.105 289.5,292C 288.919,291.107 288.585,290.107 288.5,289C 294.264,263.028 283.931,248.528 257.5,245.5C 258.998,229.636 252.332,219.136 237.5,214C 230.809,213.831 224.142,213.331 217.5,212.5C 210.892,203.361 201.892,198.695 190.5,198.5C 184.767,199.862 179.101,201.529 173.5,203.5C 170.385,201.561 167.385,199.394 164.5,197C 157.96,194.146 151.293,193.813 144.5,196C 140.453,197.44 136.62,199.274 133,201.5C 116.952,192.261 100.119,184.761 82.5,179C 59.8333,172.667 37.1667,166.333 14.5,160C 13.9415,159.275 13.6082,158.442 13.5,157.5C 19.9891,134.516 31.1558,114.182 47,96.5C 54.0618,89.2701 61.2285,82.2701 68.5,75.5 Z"/></g>
<g><path style="opacity:1" fill="#f6cf32" d="M 11.5,171.5 C 45.1188,178.237 77.7855,188.07 109.5,201C 114.959,203.632 120.292,206.465 125.5,209.5C 121.713,234.381 132.38,247.714 157.5,249.5C 163.527,266.82 175.861,275.154 194.5,274.5C 202.029,287.513 213.196,292.513 228,289.5C 239.946,308.387 256.113,313.221 276.5,304C 278.241,302.38 280.075,300.88 282,299.5C 292.365,305.549 303.531,308.049 315.5,307C 321.73,305.553 327.064,302.553 331.5,298C 339.75,297.965 347.75,296.632 355.5,294C 361.24,289.256 365.906,283.59 369.5,277C 383.199,277.559 394.033,272.392 402,261.5C 403.717,257.457 404.883,253.29 405.5,249C 433.3,248.406 443.633,234.906 436.5,208.5C 472.568,194.231 509.568,182.898 547.5,174.5C 549.395,199.254 543.895,222.254 531,243.5C 511.327,273.756 485.494,297.256 453.5,314C 397.997,341.769 339.164,355.269 277,354.5C 221.713,354.802 168.88,343.635 118.5,321C 90.2996,307.471 65.4663,289.304 44,266.5C 20.1136,239.342 9.28031,207.675 11.5,171.5 Z"/></g>
<g><path style="opacity:0.999" fill="#fdfdfd" d="M 148.5,204.5 C 156.126,203.514 161.959,206.18 166,212.5C 167.637,215.717 168.97,219.05 170,222.5C 177.859,211.326 188.359,207.492 201.5,211C 207.182,215.508 211.015,221.341 213,228.5C 224.306,220.119 234.973,220.786 245,230.5C 245.667,231.833 246.333,233.167 247,234.5C 247.223,242.166 247.056,249.832 246.5,257.5C 260.531,252.286 271.365,255.953 279,268.5C 282.523,283.624 277.023,293.79 262.5,299C 246.434,299.436 237.767,291.603 236.5,275.5C 232.396,275.884 228.729,277.384 225.5,280C 210.6,281.268 202.6,274.435 201.5,259.5C 196.604,261.108 191.604,262.441 186.5,263.5C 176.294,262.139 169.794,256.472 167,246.5C 166.935,241.982 166.269,237.649 165,233.5C 151.958,242.263 142.291,239.597 136,225.5C 134.565,215.021 138.732,208.021 148.5,204.5 Z"/></g>
</svg>
