<?xml version="1.0" encoding="UTF-8"?>
<!DOCTYPE svg PUBLIC "-//W3C//DTD SVG 1.1//EN" "http://www.w3.org/Graphics/SVG/1.1/DTD/svg11.dtd">
<svg xmlns="http://www.w3.org/2000/svg" version="1.1" width="841px" height="587px" style="shape-rendering:geometricPrecision; text-rendering:geometricPrecision; image-rendering:optimizeQuality; fill-rule:evenodd; clip-rule:evenodd" xmlns:xlink="http://www.w3.org/1999/xlink">
<g><path style="opacity:0.977" fill="#fefefe" d="M 60.5,-0.5 C 67.1667,-0.5 73.8333,-0.5 80.5,-0.5C 113.27,7.99307 138.77,26.6597 157,55.5C 163.935,67.3672 169.768,79.7006 174.5,92.5C 271.721,89.9386 368.888,86.2719 466,81.5C 471.341,82.9759 476.507,82.4759 481.5,80C 503.381,67.7271 526.047,57.0604 549.5,48C 570.711,39.4654 592.711,35.4654 615.5,36C 616.86,37.9376 616.527,39.6043 614.5,41C 586.025,52.57 558.025,65.2367 530.5,79C 561.836,78.8222 593.169,78.1556 624.5,77C 686.43,74.3362 748.263,71.8362 810,69.5C 826.254,71.2681 836.421,79.9347 840.5,95.5C 840.5,98.5 840.5,101.5 840.5,104.5C 838.121,118.047 830.121,126.213 816.5,129C 797.681,130.312 778.848,130.146 760,128.5C 758.333,128.833 756.667,129.167 755,129.5C 654.156,126.851 553.322,125.018 452.5,124C 447.54,126.147 442.873,128.814 438.5,132C 419.92,145.91 401.92,160.576 384.5,176C 314.453,229.096 250.619,222.596 193,156.5C 188.914,150.328 185.914,143.661 184,136.5C 183.071,132.756 183.571,129.256 185.5,126C 186.5,125.333 187.5,125.333 188.5,126C 241.428,195.363 303.428,204.697 374.5,154C 387.68,144.242 400.68,134.242 413.5,124C 413.167,123.667 412.833,123.333 412.5,123C 302.023,120.541 191.523,118.708 81,117.5C 64.8072,116.973 48.6406,116.14 32.5,115C 25.5094,110.736 24.8427,105.736 30.5,100C 32.3921,99.0266 34.3921,98.3599 36.5,98C 79.9763,96.4403 123.31,94.4403 166.5,92C 152.583,74.0809 137.25,57.4142 120.5,42C 94.922,21.4812 66.922,17.1479 36.5,29C 30.4325,32.3986 24.9325,36.5653 20,41.5C 14.8333,48.6667 9.66667,55.8333 4.5,63C 2.73498,63.6397 1.06831,63.4731 -0.5,62.5C -0.5,61.1667 -0.5,59.8333 -0.5,58.5C 4.4199,41.8376 13.0866,27.3376 25.5,15C 35.8283,6.62022 47.495,1.45355 60.5,-0.5 Z"/></g>
<g><path style="opacity:0.978" fill="#fefefe" d="M 840.5,471.5 C 840.5,474.5 840.5,477.5 840.5,480.5C 836.835,495.658 827.168,503.825 811.5,505C 692.516,504.113 573.516,501.946 454.5,498.5C 448.111,501.402 442.111,504.902 436.5,509C 419.543,522.289 402.876,535.955 386.5,550C 370.917,562.296 353.917,572.296 335.5,580C 327.514,582.726 319.514,584.892 311.5,586.5C 300.167,586.5 288.833,586.5 277.5,586.5C 246.145,578.667 219.645,562.667 198,538.5C 191.613,530.775 186.947,522.108 184,512.5C 183.421,508.797 183.588,505.131 184.5,501.5C 186.199,501.34 187.866,501.506 189.5,502C 207.101,528.938 231.101,547.605 261.5,558C 290.455,565.589 318.122,562.256 344.5,548C 369.216,533.613 392.549,517.28 414.5,499C 334.888,496.685 255.221,494.852 175.5,493.5C 143.744,493.366 112.077,493.366 80.5,493.5C 76.4241,492.349 72.2574,491.682 68,491.5C 62.3186,492.153 56.6519,492.486 51,492.5C 45.5153,491.847 40.0153,491.347 34.5,491C 27.3527,488.862 25.1861,484.362 28,477.5C 29.7998,475.683 31.9664,474.516 34.5,474C 78.4969,472.049 122.497,470.049 166.5,468C 153.339,451.058 139.005,435.058 123.5,420C 104.947,403.704 83.2806,396.371 58.5,398C 42.8861,400.223 29.7194,407.056 19,418.5C 14.1667,425.333 9.33333,432.167 4.5,439C 2.5048,439.613 0.838136,439.113 -0.5,437.5C -0.5,436.5 -0.5,435.5 -0.5,434.5C 16.9737,381.429 51.9737,364.263 104.5,383C 139.328,402.003 162.661,430.503 174.5,468.5C 271.522,465.475 368.522,461.809 465.5,457.5C 470.487,458.345 475.487,457.845 480.5,456C 502.411,443.711 525.078,433.044 548.5,424C 567.47,416.506 587.137,412.006 607.5,410.5C 610.223,410.551 612.89,410.884 615.5,411.5C 616.747,413.006 616.747,414.506 615.5,416C 586.581,428.419 557.914,441.419 529.5,455C 621.355,452.726 713.188,449.56 805,445.5C 824.104,444.605 835.938,453.271 840.5,471.5 Z"/></g>
</svg>
