<?xml version="1.0" encoding="UTF-8"?>
<!DOCTYPE svg PUBLIC "-//W3C//DTD SVG 1.1//EN" "http://www.w3.org/Graphics/SVG/1.1/DTD/svg11.dtd">
<svg xmlns="http://www.w3.org/2000/svg" version="1.1" width="512px" height="512px" style="shape-rendering:geometricPrecision; text-rendering:geometricPrecision; image-rendering:optimizeQuality; fill-rule:evenodd; clip-rule:evenodd" xmlns:xlink="http://www.w3.org/1999/xlink">
<g><path style="opacity:0.973" fill="#fefefe" d="M 52.5,-0.5 C 154.167,-0.5 255.833,-0.5 357.5,-0.5C 382.038,5.53767 397.538,20.871 404,45.5C 406.663,70.4659 407.163,95.4659 405.5,120.5C 410.571,119.31 415.571,117.81 420.5,116C 423.669,115.022 426.503,115.522 429,117.5C 429.333,117.167 429.667,116.833 430,116.5C 432.819,122.122 431.652,126.622 426.5,130C 386.551,143.052 353.384,165.885 327,198.5C 317.21,213.289 311.543,229.622 310,247.5C 309.665,252.519 309.165,257.519 308.5,262.5C 308.577,264.299 309.077,265.966 310,267.5C 334.577,243.254 360.077,220.087 386.5,198C 399.492,188.835 412.826,180.169 426.5,172C 431.855,168.21 436.689,168.71 441,173.5C 441.667,175.833 441.667,178.167 441,180.5C 415.247,222.936 384.247,261.269 348,295.5C 347.028,297.305 345.861,298.972 344.5,300.5C 372.219,303.465 396.885,296.298 418.5,279C 427.333,271.5 435.5,263.333 443,254.5C 445.134,252.197 446.634,249.531 447.5,246.5C 438.265,245.053 429.265,242.72 420.5,239.5C 417.314,236.863 416.814,233.863 419,230.5C 429.096,223.412 438.929,215.912 448.5,208C 473.438,182.957 488.438,152.79 493.5,117.5C 480.082,118.417 466.748,120.083 453.5,122.5C 442.845,117.635 442.845,112.468 453.5,107C 470.23,102.617 487.23,100.617 504.5,101C 506.57,101.948 508.07,103.448 509,105.5C 508.547,144.063 495.547,177.729 470,206.5C 465.77,210.393 461.937,214.559 458.5,219C 454.142,222.696 449.808,226.363 445.5,230C 452.836,230.034 459.836,231.534 466.5,234.5C 470.148,238.557 470.315,242.89 467,247.5C 451.172,271.163 431.005,290.163 406.5,304.5C 405.5,338.16 405.167,371.827 405.5,405.5C 428.502,405.333 451.502,405.5 474.5,406C 496.003,410.668 508.337,423.834 511.5,445.5C 511.5,449.167 511.5,452.833 511.5,456.5C 505.34,490.664 485.007,508.997 450.5,511.5C 444.5,511.5 438.5,511.5 432.5,511.5C 365.167,510.167 297.833,510.167 230.5,511.5C 209.833,511.5 189.167,511.5 168.5,511.5C 127.847,508.007 106.68,485.673 105,444.5C 104.787,424.471 104.621,404.471 104.5,384.5C 103.954,376.867 105.121,369.534 108,362.5C 114.854,358.143 119.187,360.143 121,368.5C 121.034,384.493 120.867,400.493 120.5,416.5C 120.423,429.198 120.923,441.865 122,454.5C 125.772,480.659 140.939,494.326 167.5,495.5C 189.908,493.663 203.908,481.997 209.5,460.5C 209.167,459.5 208.833,458.5 208.5,457.5C 184.528,458.772 160.528,458.772 136.5,457.5C 134.29,439.411 140.29,424.578 154.5,413C 158.221,410.473 162.221,408.473 166.5,407C 180.421,405.061 194.421,404.228 208.5,404.5C 269.163,405.394 329.83,405.727 390.5,405.5C 390.5,374.5 390.5,343.5 390.5,312.5C 368.219,315.162 345.885,317.329 323.5,319C 304.777,332.722 285.777,346.056 266.5,359C 263.04,361.065 259.374,362.565 255.5,363.5C 247.508,362.794 245.341,358.794 249,351.5C 252.159,344.512 255.826,337.846 260,331.5C 270.667,316.833 281.333,302.167 292,287.5C 293.819,269.88 295.152,252.214 296,234.5C 299.867,214.103 308.533,196.103 322,180.5C 341.986,159.2 364.653,141.533 390,127.5C 390.736,102.819 390.402,78.1528 389,53.5C 385.951,29.786 372.451,16.9526 348.5,15C 268.167,14.3333 187.833,14.3333 107.5,15C 105.833,15.3333 104.167,15.6667 102.5,16C 111.927,26.0212 117.76,37.8545 120,51.5C 121.78,148.831 121.946,246.165 120.5,343.5C 116.869,344.412 113.203,344.579 109.5,344C 107.959,342.421 106.792,340.587 106,338.5C 105.5,260.501 105.333,182.501 105.5,104.5C 86.9858,104.24 68.4858,104.574 50,105.5C 28.2707,105.477 12.604,95.8101 3,76.5C 1.34733,71.8162 0.180668,67.1496 -0.5,62.5C -0.5,60.1667 -0.5,57.8333 -0.5,55.5C 4.1608,24.5063 21.8275,5.8396 52.5,-0.5 Z M 51.5,17.5 C 70.0209,14.8307 84.8542,20.8307 96,35.5C 98.5305,39.7261 100.364,44.2261 101.5,49C 101.167,49.5 100.833,50 100.5,50.5C 93.1349,49.0757 85.8016,49.2424 78.5,51C 76.9588,52.5793 75.7922,54.4127 75,56.5C 69.9849,84.5627 54.4849,93.0627 28.5,82C 17.4514,70.5531 14.9514,57.3865 21,42.5C 27.5124,29.5205 37.6791,21.1871 51.5,17.5 Z M 93.5,68.5 C 96.8333,68.5 100.167,68.5 103.5,68.5C 103.5,75.1667 103.5,81.8333 103.5,88.5C 97.1318,88.8297 90.7985,88.4963 84.5,87.5C 88.3166,81.5344 91.3166,75.201 93.5,68.5 Z M 394.5,217.5 C 390.576,223.271 386.409,228.937 382,234.5C 369.965,246.866 358.299,259.533 347,272.5C 337.595,281.449 328.095,290.283 318.5,299C 312.216,304.464 305.55,309.297 298.5,313.5C 330.167,281.167 362.167,249.167 394.5,217.5 Z M 369.5,239.5 C 346.167,263.5 322.5,287.167 298.5,310.5C 306.075,300.379 313.908,290.379 322,280.5C 337.389,266.237 353.222,252.57 369.5,239.5 Z M 219.5,422.5 C 259.165,421.833 298.999,421.5 339,421.5C 382.187,421.361 425.354,421.861 468.5,423C 487.273,426.371 495.44,437.538 493,456.5C 490.548,467.578 485.381,477.078 477.5,485C 471.883,488.317 465.883,490.65 459.5,492C 417.025,493.144 374.525,493.644 332,493.5C 292.167,493.167 252.333,492.833 212.5,492.5C 215.087,487.746 218.254,483.413 222,479.5C 228.096,466.833 230.096,453.5 228,439.5C 226.196,433.225 223.362,427.558 219.5,422.5 Z M 179.5,422.5 C 189.699,422.607 197.865,426.607 204,434.5C 205.411,436.65 206.245,438.984 206.5,441.5C 189.5,441.5 172.5,441.5 155.5,441.5C 157.027,433.463 161.694,427.963 169.5,425C 172.952,424.115 176.286,423.282 179.5,422.5 Z"/></g>
<g><path style="opacity:0.966" fill="#fdfdfd" d="M 151.5,85.5 C 166.342,84.7538 178.342,90.2538 187.5,102C 194.812,105.547 201.812,104.88 208.5,100C 214.011,94.1465 220.345,89.4798 227.5,86C 235.232,85.1439 242.898,85.4772 250.5,87C 257.072,90.9025 263.072,95.5691 268.5,101C 274.631,105.225 280.965,105.558 287.5,102C 293.771,95.1987 301.104,89.8654 309.5,86C 319.305,84.3924 328.638,85.7257 337.5,90C 342.167,94 346.833,98 351.5,102C 356.349,104.129 361.349,105.795 366.5,107C 367.333,107.833 368.167,108.667 369,109.5C 370.472,115.076 369.305,119.909 365.5,124C 359.431,124.804 353.431,124.471 347.5,123C 339.805,117.817 332.472,112.151 325.5,106C 319.82,104.412 314.487,105.412 309.5,109C 301.545,118.561 291.378,124.061 279,125.5C 274.36,124.882 269.86,123.715 265.5,122C 258.484,117.826 251.817,113.159 245.5,108C 239.324,104.52 233.324,104.853 227.5,109C 221.682,115.154 215.015,120.154 207.5,124C 190.65,127.276 176.983,122.276 166.5,109C 161.069,106.378 155.403,104.378 149.5,103C 148.667,102.167 147.833,101.333 147,100.5C 146.333,97.1667 146.333,93.8333 147,90.5C 148.025,88.313 149.525,86.6464 151.5,85.5 Z"/></g>
<g><path style="opacity:0.967" fill="#fdfdfd" d="M 151.5,144.5 C 161.344,143.061 170.011,145.561 177.5,152C 182.119,158.134 188.119,161.968 195.5,163.5C 204.968,162.098 212.635,157.598 218.5,150C 221.554,147.806 224.888,146.139 228.5,145C 240.02,142.532 250.353,144.866 259.5,152C 263.356,155.1 267.023,158.433 270.5,162C 277.641,164.44 284.307,163.44 290.5,159C 296.011,153.147 302.345,148.48 309.5,145C 314.167,144.333 318.833,144.333 323.5,145C 327.722,146.56 329.389,149.56 328.5,154C 328.974,157.292 327.974,159.959 325.5,162C 315.155,164.34 306.488,169.506 299.5,177.5C 296.112,179.861 292.446,181.694 288.5,183C 281.167,183.667 273.833,183.667 266.5,183C 259.256,178.427 252.59,173.093 246.5,167C 239.998,163.546 233.665,163.879 227.5,168C 221.741,173.762 215.408,178.762 208.5,183C 201.5,183.667 194.5,183.667 187.5,183C 184.311,182.158 181.311,180.825 178.5,179C 173.833,175 169.167,171 164.5,167C 160.317,165.204 155.984,163.871 151.5,163C 149.714,162.215 148.214,161.049 147,159.5C 145.252,153.298 146.752,148.298 151.5,144.5 Z"/></g>
<g><path style="opacity:0.967" fill="#fdfdfd" d="M 156.5,202.5 C 167.99,203.746 177.324,208.912 184.5,218C 190.647,223.213 197.313,224.213 204.5,221C 211.216,215.283 218.216,209.95 225.5,205C 232.084,203.456 238.751,203.123 245.5,204C 249.544,204.856 253.211,206.522 256.5,209C 264.282,217.894 273.948,223.727 285.5,226.5C 290.835,231.684 290.502,236.517 284.5,241C 281.751,242.084 278.918,242.917 276,243.5C 263.978,241.404 254.145,235.571 246.5,226C 239.998,222.546 233.665,222.879 227.5,227C 222.075,233.205 215.742,238.205 208.5,242C 195.726,244.521 184.059,242.188 173.5,235C 170.133,231.297 166.466,227.964 162.5,225C 157.236,223.723 152.236,221.889 147.5,219.5C 143.696,209.858 146.696,204.192 156.5,202.5 Z"/></g>
</svg>
