<?xml version="1.0" encoding="UTF-8"?>
<!DOCTYPE svg PUBLIC "-//W3C//DTD SVG 1.1//EN" "http://www.w3.org/Graphics/SVG/1.1/DTD/svg11.dtd">
<svg xmlns="http://www.w3.org/2000/svg" version="1.1" width="514px" height="514px" style="shape-rendering:geometricPrecision; text-rendering:geometricPrecision; image-rendering:optimizeQuality; fill-rule:evenodd; clip-rule:evenodd" xmlns:xlink="http://www.w3.org/1999/xlink">
<g><path style="opacity:0.901" fill="#f2f1f5" d="M 48.5,-0.5 C 152.167,-0.5 255.833,-0.5 359.5,-0.5C 393.33,10.7236 409.664,34.3903 408.5,70.5C 407.461,87.1579 407.294,103.825 408,120.5C 414.759,117.018 421.926,115.518 429.5,116C 434.765,121.407 434.765,126.74 429.5,132C 396.207,143.382 367.041,161.215 342,185.5C 337.711,191.458 333.044,197.124 328,202.5C 315.935,221.426 310.769,242.093 312.5,264.5C 339.981,234.84 370.314,208.673 403.5,186C 412.54,180.147 421.873,174.814 431.5,170C 442.373,169.206 445.873,174.039 442,184.5C 415.892,227.457 384.392,266.29 347.5,301C 375.145,302.785 399.478,294.785 420.5,277C 429.402,268.768 437.569,259.934 445,250.5C 445.432,249.4 444.932,248.733 443.5,248.5C 435.163,247.501 427.163,245.335 419.5,242C 415.464,237.13 415.797,232.463 420.5,228C 460.441,203.512 484.441,168.012 492.5,121.5C 481.059,121.014 469.726,122.181 458.5,125C 448.549,126.716 444.049,122.549 445,112.5C 446.558,110.641 448.391,109.141 450.5,108C 468.494,103.031 486.828,100.697 505.5,101C 507.848,101.346 509.681,102.513 511,104.5C 510.551,155.896 490.384,197.73 450.5,230C 455.195,230.872 459.861,231.872 464.5,233C 469.23,233.894 471.564,236.728 471.5,241.5C 471.534,244.433 470.701,247.1 469,249.5C 453.548,273.786 433.381,293.119 408.5,307.5C 407.5,340.16 407.167,372.827 407.5,405.5C 432.219,405.039 456.885,405.539 481.5,407C 499.611,413.759 510.277,426.592 513.5,445.5C 513.5,450.5 513.5,455.5 513.5,460.5C 507.98,487.685 491.98,505.352 465.5,513.5C 361.5,513.5 257.5,513.5 153.5,513.5C 125.985,505.813 109.818,487.813 105,459.5C 104.333,428.5 104.333,397.5 105,366.5C 107.815,360.831 112.315,358.998 118.5,361C 120.259,362.008 121.426,363.508 122,365.5C 122.12,396.184 122.786,426.851 124,457.5C 126.886,475.106 136.72,486.939 153.5,493C 177.803,498.763 195.636,490.596 207,468.5C 208.079,465.937 208.579,463.271 208.5,460.5C 184.831,460.667 161.164,460.5 137.5,460C 135.191,457.285 133.857,454.118 133.5,450.5C 136.286,430.054 146.953,415.554 165.5,407C 239.789,405.512 314.122,405.012 388.5,405.5C 388.5,375.5 388.5,345.5 388.5,315.5C 368.389,318.932 348.222,320.599 328,320.5C 324.961,321.603 322.127,323.103 319.5,325C 300.872,340.621 280.872,354.287 259.5,366C 247.202,368.028 243.368,363.195 248,351.5C 249.966,347.52 251.966,343.52 254,339.5C 266.912,322.01 279.579,304.343 292,286.5C 286.162,235.308 302.662,193.142 341.5,160C 355.939,148.23 371.439,138.063 388,129.5C 388.927,102.472 388.593,75.4717 387,48.5C 380.848,30.6943 368.348,20.5277 349.5,18C 268.167,17.3333 186.833,17.3333 105.5,18C 113.747,26.6596 119.247,36.8263 122,48.5C 122.667,147.167 122.667,245.833 122,344.5C 115.581,350.121 109.914,349.454 105,342.5C 104.5,264.167 104.333,185.834 104.5,107.5C 81.1643,107.667 57.831,107.5 34.5,107C 16.9835,101.316 5.31683,89.8161 -0.5,72.5C -0.5,64.1667 -0.5,55.8333 -0.5,47.5C 6.76756,22.3455 23.1009,6.34548 48.5,-0.5 Z M 49.5,18.5 C 69.2288,14.791 85.0621,20.791 97,36.5C 99.7295,41.19 101.563,46.19 102.5,51.5C 96.1579,51.3338 89.8246,51.5005 83.5,52C 81.2199,52.2326 79.2199,53.066 77.5,54.5C 75.3158,61.8853 72.8158,69.2186 70,76.5C 54.2139,93.6274 38.2139,93.6274 22,76.5C 14.8075,59.5272 17.4741,44.1939 30,30.5C 35.8444,25.333 42.3444,21.333 49.5,18.5 Z M 92.5,69.5 C 96.5,69.5 100.5,69.5 104.5,69.5C 104.5,76.5 104.5,83.5 104.5,90.5C 97.4921,90.6663 90.4921,90.4996 83.5,90C 88.3375,83.9926 91.3375,77.1592 92.5,69.5 Z M 398.5,214.5 C 395.916,218.933 393.082,223.266 390,227.5C 365.48,257.02 338.647,284.186 309.5,309C 303.878,313.802 297.878,317.969 291.5,321.5C 302.074,307.379 312.907,293.379 324,279.5C 349.001,257.997 373.834,236.331 398.5,214.5 Z M 219.5,422.5 C 303.184,422.034 386.85,422.534 470.5,424C 489.196,428.543 497.029,440.376 494,459.5C 490.854,473.678 483.02,484.178 470.5,491C 465.323,492.961 459.99,494.294 454.5,495C 373.5,495.667 292.5,495.667 211.5,495C 225.837,479.985 231.337,462.151 228,441.5C 225.836,434.846 223.002,428.512 219.5,422.5 Z M 176.5,423.5 C 191.78,422.632 202.447,429.132 208.5,443C 190.491,443.833 172.491,443.666 154.5,442.5C 158.808,432.516 166.141,426.183 176.5,423.5 Z"/></g>
<g><path style="opacity:1" fill="#5829b3" d="M 49.5,1.5 C 150.501,1.33334 251.501,1.5 352.5,2C 379.183,5.76628 396.35,20.5996 404,46.5C 405.1,72.1425 405.933,97.8091 406.5,123.5C 412.456,120.81 418.623,118.81 425,117.5C 432.282,120.453 433.115,124.62 427.5,130C 392.13,142.089 361.63,161.589 336,188.5C 322.65,202.199 314.316,218.533 311,237.5C 309.668,248.814 309.001,260.147 309,271.5C 343.346,234.473 381.846,202.64 424.5,176C 428.609,173.628 432.942,172.295 437.5,172C 439.448,173.439 440.781,175.272 441.5,177.5C 440.221,182.059 438.388,186.392 436,190.5C 419.642,214.547 402.308,237.88 384,260.5C 369.676,274.325 355.843,288.658 342.5,303.5C 373.214,306.467 400.214,297.967 423.5,278C 433.104,268.568 441.77,258.402 449.5,247.5C 441.241,245.348 432.908,243.515 424.5,242C 419.962,240.287 418.462,237.12 420,232.5C 463.181,206.174 488.348,167.84 495.5,117.5C 481.258,117.762 467.258,119.762 453.5,123.5C 445.781,120.793 444.781,116.626 450.5,111C 452.833,110 455.167,109 457.5,108C 473.05,105.011 488.716,103.344 504.5,103C 506.286,103.785 507.786,104.951 509,106.5C 507.626,151.316 490.793,189.149 458.5,220C 453.833,224 449.167,228 444.5,232C 452.346,232.929 460.012,234.596 467.5,237C 468.894,237.956 469.561,239.289 469.5,241C 468.755,243.992 467.588,246.826 466,249.5C 450.504,272.831 430.671,291.497 406.5,305.5C 405.5,339.493 405.167,373.493 405.5,407.5C 429.868,407.071 454.201,407.571 478.5,409C 502.925,418 513.425,435.5 510,461.5C 505.144,488.022 489.644,504.522 463.5,511C 359.474,511.985 255.474,511.651 151.5,510C 125.411,501.574 110.578,483.741 107,456.5C 106.333,427.167 106.333,397.833 107,368.5C 108.911,363.582 112.411,361.749 117.5,363C 118.701,363.903 119.535,365.069 120,366.5C 120.333,394.5 120.667,422.5 121,450.5C 122.035,475.205 134.535,490.705 158.5,497C 181.594,499.872 198.427,491.038 209,470.5C 210.283,466.586 211.116,462.586 211.5,458.5C 187.498,458.667 163.498,458.5 139.5,458C 137.147,455.867 136.147,453.2 136.5,450C 138.139,436.36 144.139,425.027 154.5,416C 159.275,412.279 164.609,409.612 170.5,408C 244.166,407.5 317.833,407.333 391.5,407.5C 391.5,375.833 391.5,344.167 391.5,312.5C 369.324,316.063 346.991,318.23 324.5,319C 305.777,332.722 286.777,346.056 267.5,359C 263.392,361.388 259.059,363.221 254.5,364.5C 250.79,364.124 248.79,362.124 248.5,358.5C 249.906,352.354 252.406,346.687 256,341.5C 268.421,323.657 281.088,305.99 294,288.5C 288.156,236.645 304.989,194.145 344.5,161C 358.646,149.361 373.98,139.528 390.5,131.5C 391.666,106.84 391.833,82.1734 391,57.5C 387.469,32.3042 372.969,18.1375 347.5,15C 265.17,15.2006 182.837,15.534 100.5,16C 110.239,25.6431 116.739,37.1431 120,50.5C 120.667,147.833 120.667,245.167 120,342.5C 114.785,347.019 110.451,346.353 107,340.5C 106.5,262.167 106.333,183.834 106.5,105.5C 82.1147,105.961 57.7813,105.461 33.5,104C 8.63376,93.7773 -1.86624,75.2773 2,48.5C 9.08752,23.9121 24.9209,8.24542 49.5,1.5 Z M 49.5,18.5 C 42.3444,21.333 35.8444,25.333 30,30.5C 17.4741,44.1939 14.8075,59.5272 22,76.5C 38.2139,93.6274 54.2139,93.6274 70,76.5C 72.8158,69.2186 75.3158,61.8853 77.5,54.5C 79.2199,53.066 81.2199,52.2326 83.5,52C 89.8246,51.5005 96.1579,51.3338 102.5,51.5C 101.563,46.19 99.7295,41.19 97,36.5C 85.0621,20.791 69.2288,14.791 49.5,18.5 Z M 92.5,69.5 C 91.3375,77.1592 88.3375,83.9926 83.5,90C 90.4921,90.4996 97.4921,90.6663 104.5,90.5C 104.5,83.5 104.5,76.5 104.5,69.5C 100.5,69.5 96.5,69.5 92.5,69.5 Z M 398.5,214.5 C 395.916,218.933 393.082,223.266 390,227.5C 365.48,257.02 338.647,284.186 309.5,309C 303.878,313.802 297.878,317.969 291.5,321.5C 302.074,307.379 312.907,293.379 324,279.5C 349.001,257.997 373.834,236.331 398.5,214.5 Z M 219.5,422.5 C 223.002,428.512 225.836,434.846 228,441.5C 231.337,462.151 225.837,479.985 211.5,495C 292.5,495.667 373.5,495.667 454.5,495C 459.99,494.294 465.323,492.961 470.5,491C 483.02,484.178 490.854,473.678 494,459.5C 497.029,440.376 489.196,428.543 470.5,424C 386.85,422.534 303.184,422.034 219.5,422.5 Z M 176.5,423.5 C 166.141,426.183 158.808,432.516 154.5,442.5C 172.491,443.666 190.491,443.833 208.5,443C 202.447,429.132 191.78,422.632 176.5,423.5 Z"/></g>
<g><path style="opacity:0.826" fill="#f0edf5" d="M 51.5,15.5 C 81.2364,12.5864 99.5697,25.5864 106.5,54.5C 97.3921,54.0568 88.3921,54.5568 79.5,56C 77.4121,63.5971 74.9121,71.0971 72,78.5C 63.1146,89.5754 51.6146,93.7421 37.5,91C 19.4936,83.8254 12.327,70.6588 16,51.5C 21.3494,32.9846 33.1828,20.9846 51.5,15.5 Z M 49.5,18.5 C 42.3444,21.333 35.8444,25.333 30,30.5C 17.4741,44.1939 14.8075,59.5272 22,76.5C 38.2139,93.6274 54.2139,93.6274 70,76.5C 72.8158,69.2186 75.3158,61.8853 77.5,54.5C 79.2199,53.066 81.2199,52.2326 83.5,52C 89.8246,51.5005 96.1579,51.3338 102.5,51.5C 101.563,46.19 99.7295,41.19 97,36.5C 85.0621,20.791 69.2288,14.791 49.5,18.5 Z"/></g>
<g><path style="opacity:0.954" fill="#f6f5f8" d="M 90.5,67.5 C 95.8333,67.5 101.167,67.5 106.5,67.5C 106.5,75.8333 106.5,84.1667 106.5,92.5C 97.1607,92.6665 87.8274,92.4998 78.5,92C 84.8804,85.0407 88.8804,76.874 90.5,67.5 Z M 92.5,69.5 C 91.3375,77.1592 88.3375,83.9926 83.5,90C 90.4921,90.4996 97.4921,90.6663 104.5,90.5C 104.5,83.5 104.5,76.5 104.5,69.5C 100.5,69.5 96.5,69.5 92.5,69.5 Z"/></g>
<g><path style="opacity:0.817" fill="#f1eef5" d="M 317.5,86.5 C 324.14,86.7176 330.473,88.2176 336.5,91C 342.06,94.6247 347.06,98.958 351.5,104C 356.67,106.359 362.003,108.192 367.5,109.5C 369.744,113.621 370.077,117.954 368.5,122.5C 365.888,124.987 362.721,125.987 359,125.5C 354.63,125.677 350.464,124.843 346.5,123C 339.592,118.762 333.259,113.762 327.5,108C 321.683,105.802 316.017,106.135 310.5,109C 302.612,118.859 292.446,124.692 280,126.5C 275.021,125.92 270.188,124.754 265.5,123C 259.221,119.054 253.221,114.721 247.5,110C 241.706,105.791 235.706,105.457 229.5,109C 224.124,114.044 218.458,118.711 212.5,123C 200.335,127.07 188.668,126.07 177.5,120C 173.8,115.965 169.8,112.298 165.5,109C 160.651,106.871 155.651,105.205 150.5,104C 148.051,102.137 147.051,99.6367 147.5,96.5C 146.827,92.7189 148.161,89.8856 151.5,88C 161.591,86.2545 170.591,88.5878 178.5,95C 181.867,98.7026 185.534,102.036 189.5,105C 195.287,107.122 200.953,106.789 206.5,104C 210.8,100.702 214.8,97.0352 218.5,93C 237.823,82.8631 254.49,86.1965 268.5,103C 274.183,106.701 280.183,107.368 286.5,105C 295.292,95.9975 305.626,89.8308 317.5,86.5 Z"/></g>
<g><path style="opacity:1" fill="#5a2bb4" d="M 153.5,89.5 C 159.424,89.4513 165.09,90.618 170.5,93C 176.458,97.289 182.124,101.956 187.5,107C 195.093,110.291 202.426,109.624 209.5,105C 213.466,102.036 217.133,98.7026 220.5,95C 232.953,87.785 245.286,88.1184 257.5,96C 263.35,103.701 271.017,108.201 280.5,109.5C 282.5,109 284.5,108.5 286.5,108C 293.273,101.893 300.607,96.5597 308.5,92C 318.683,88.0772 328.35,89.0772 337.5,95C 342.687,99.0971 347.687,103.43 352.5,108C 356.941,108.846 361.274,110.013 365.5,111.5C 367.969,114.674 368.136,118.007 366,121.5C 362.067,123.478 357.9,123.978 353.5,123C 344.133,119.306 336.133,113.639 329.5,106C 322.334,102.469 315.334,102.802 308.5,107C 290.017,128.258 270.684,128.925 250.5,109C 246.868,106.35 242.868,104.517 238.5,103.5C 234.581,103.896 230.914,105.063 227.5,107C 222.5,111.333 217.5,115.667 212.5,120C 201.081,125.242 190.081,124.575 179.5,118C 174.833,114 170.167,110 165.5,106C 161.2,104.541 156.867,103.207 152.5,102C 148.309,97.4598 148.642,93.2931 153.5,89.5 Z"/></g>
<g><path style="opacity:0.813" fill="#f2eff6" d="M 152.5,146.5 C 158.732,145.939 164.732,146.772 170.5,149C 177.408,153.238 183.741,158.238 189.5,164C 195.287,166.122 200.953,165.789 206.5,163C 210.8,159.702 214.8,156.035 218.5,152C 227.458,146.77 237.124,145.103 247.5,147C 256.312,151.472 264.312,157.138 271.5,164C 277.287,166.122 282.953,165.789 288.5,163C 292.8,159.702 296.8,156.035 300.5,152C 307.753,146.95 315.753,145.283 324.5,147C 329.044,151.748 329.71,157.081 326.5,163C 315.27,164.562 306.27,169.896 299.5,179C 289.806,184.219 279.472,185.885 268.5,184C 260.493,179.656 253.159,174.323 246.5,168C 240.833,164.667 235.167,164.667 229.5,168C 223.741,173.762 217.408,178.762 210.5,183C 197.489,186.509 185.489,184.509 174.5,177C 168.458,168.954 160.458,164.287 150.5,163C 149.667,162.167 148.833,161.333 148,160.5C 146.19,154.519 147.69,149.852 152.5,146.5 Z"/></g>
<g><path style="opacity:1" fill="#5a2bb4" d="M 153.5,148.5 C 159.462,148.241 165.129,149.407 170.5,152C 176.458,156.289 182.124,160.956 187.5,166C 194.564,169.095 201.564,168.761 208.5,165C 213.876,159.956 219.542,155.289 225.5,151C 234.625,147.643 243.625,147.976 252.5,152C 258.458,156.289 264.124,160.956 269.5,166C 276.564,169.095 283.564,168.761 290.5,165C 294.8,161.702 298.8,158.035 302.5,154C 308.564,149.988 315.231,148.321 322.5,149C 325.203,149.865 326.536,151.699 326.5,154.5C 326.331,156.839 325.664,159.006 324.5,161C 319.176,161.719 314.176,163.386 309.5,166C 289.093,187.961 268.76,187.961 248.5,166C 241.452,161.511 234.452,161.511 227.5,166C 221.741,171.762 215.408,176.762 208.5,181C 197.355,184.102 187.022,182.435 177.5,176C 171.009,167.165 162.343,162.165 151.5,161C 149.522,158.503 149.022,155.669 150,152.5C 151.376,151.295 152.542,149.962 153.5,148.5 Z"/></g>
<g><path style="opacity:0.834" fill="#efecf3" d="M 406.5,203.5 C 408.686,203.511 409.519,204.511 409,206.5C 373.251,256.25 330.251,298.583 280,333.5C 279.333,332.5 279.333,331.5 280,330.5C 293,314.167 306,297.833 319,281.5C 347.766,254.893 376.932,228.893 406.5,203.5 Z M 398.5,214.5 C 395.916,218.933 393.082,223.266 390,227.5C 365.48,257.02 338.647,284.186 309.5,309C 303.878,313.802 297.878,317.969 291.5,321.5C 302.074,307.379 312.907,293.379 324,279.5C 349.001,257.997 373.834,236.331 398.5,214.5 Z"/></g>
<g><path style="opacity:0.812" fill="#f3f0f7" d="M 152.5,205.5 C 161.43,204.311 169.43,206.478 176.5,212C 180.833,215.667 185.167,219.333 189.5,223C 195.354,226.459 201.021,226.125 206.5,222C 212.979,214.93 220.646,209.596 229.5,206C 238.717,204.377 247.384,205.71 255.5,210C 260.167,214 264.833,218 269.5,222C 275.267,224.186 280.934,226.52 286.5,229C 289.835,234.684 288.835,239.35 283.5,243C 273.959,244.707 265.292,242.707 257.5,237C 253.8,232.965 249.8,229.298 245.5,226C 240.013,223.815 234.68,224.149 229.5,227C 225.2,230.298 221.2,233.965 217.5,238C 214.446,240.194 211.112,241.861 207.5,243C 197.367,244.629 187.7,243.296 178.5,239C 173.833,235 169.167,231 164.5,227C 159.087,224.894 153.754,222.727 148.5,220.5C 146.235,214.349 147.568,209.349 152.5,205.5 Z"/></g>
<g><path style="opacity:1" fill="#5a2bb4" d="M 153.5,207.5 C 159.424,207.451 165.09,208.618 170.5,211C 176.458,215.289 182.124,219.956 187.5,225C 192.57,227.424 197.903,228.091 203.5,227C 209.2,223.146 214.533,218.812 219.5,214C 231.257,205.703 243.257,205.37 255.5,213C 262.966,221.734 272.3,227.4 283.5,230C 287.687,234.46 287.02,238.127 281.5,241C 273.988,241.58 266.988,239.913 260.5,236C 254.367,228.161 246.534,223.327 237,221.5C 233.591,221.952 230.424,223.119 227.5,225C 207.184,246.954 186.85,246.954 166.5,225C 161.754,222.584 156.754,220.917 151.5,220C 149.522,217.503 149.022,214.669 150,211.5C 151.376,210.295 152.542,208.962 153.5,207.5 Z"/></g>
<g><path style="opacity:0.943" fill="#faf9fb" d="M 215.5,420.5 C 299.834,420.333 384.167,420.5 468.5,421C 488.313,424.134 497.813,435.634 497,455.5C 494.01,479.154 480.844,492.987 457.5,497C 373.833,497.667 290.167,497.667 206.5,497C 216.403,487.081 222.903,475.248 226,461.5C 226.848,454.101 226.515,446.767 225,439.5C 221.822,433.145 218.656,426.811 215.5,420.5 Z M 219.5,422.5 C 223.002,428.512 225.836,434.846 228,441.5C 231.337,462.151 225.837,479.985 211.5,495C 292.5,495.667 373.5,495.667 454.5,495C 459.99,494.294 465.323,492.961 470.5,491C 483.02,484.178 490.854,473.678 494,459.5C 497.029,440.376 489.196,428.543 470.5,424C 386.85,422.534 303.184,422.034 219.5,422.5 Z"/></g>
<g><path style="opacity:0.906" fill="#f5f4f9" d="M 173.5,421.5 C 187.962,419.155 199.462,423.822 208,435.5C 209.868,438.605 211.035,441.938 211.5,445.5C 191.5,445.5 171.5,445.5 151.5,445.5C 154.326,433.342 161.659,425.342 173.5,421.5 Z M 176.5,423.5 C 166.141,426.183 158.808,432.516 154.5,442.5C 172.491,443.666 190.491,443.833 208.5,443C 202.447,429.132 191.78,422.632 176.5,423.5 Z"/></g>
</svg>
