<?xml version="1.0" encoding="UTF-8"?>
<!DOCTYPE svg PUBLIC "-//W3C//DTD SVG 1.1//EN" "http://www.w3.org/Graphics/SVG/1.1/DTD/svg11.dtd">
<svg xmlns="http://www.w3.org/2000/svg" version="1.1" width="450px" height="508px" style="shape-rendering:geometricPrecision; text-rendering:geometricPrecision; image-rendering:optimizeQuality; fill-rule:evenodd; clip-rule:evenodd" xmlns:xlink="http://www.w3.org/1999/xlink">
<g><path style="opacity:0.972" fill="#fefcfb" d="M 212.5,-0.5 C 222.5,-0.5 232.5,-0.5 242.5,-0.5C 284.132,10.0945 312.965,35.4278 329,75.5C 334.538,89.3166 337.372,103.65 337.5,118.5C 371.502,118.333 405.502,118.5 439.5,119C 444.443,121.106 447.776,124.606 449.5,129.5C 449.5,138.167 449.5,146.833 449.5,155.5C 443.807,259.342 438.307,363.342 433,467.5C 427.792,487.869 415.292,501.202 395.5,507.5C 280.5,507.5 165.5,507.5 50.5,507.5C 30.7556,500.908 18.9223,487.241 15,466.5C 9.66757,364.023 4.5009,261.69 -0.5,159.5C -0.5,149.833 -0.5,140.167 -0.5,130.5C 1.75774,124.414 6.09108,120.58 12.5,119C 45.165,118.5 77.8316,118.333 110.5,118.5C 114.73,71.8335 136.397,36.0001 175.5,11C 187.233,4.82369 199.566,0.990354 212.5,-0.5 Z M 218.5,39.5 C 246.94,39.1353 268.44,51.1353 283,75.5C 290.439,88.8174 295.272,102.984 297.5,118C 249.168,118.5 200.834,118.667 152.5,118.5C 154.992,86.3086 169.992,62.142 197.5,46C 204.385,43.0358 211.385,40.8692 218.5,39.5 Z"/></g>
<g><path style="opacity:1" fill="#ff5f01" d="M 214.5,9.5 C 256.847,7.91734 288.681,25.2507 310,61.5C 322.084,81.0893 328.084,102.423 328,125.5C 328.833,126.333 329.667,127.167 330.5,128C 365.833,128.333 401.167,128.667 436.5,129C 437,129.5 437.5,130 438,130.5C 438.667,144.833 438.667,159.167 438,173.5C 432.402,269.468 427.402,365.468 423,461.5C 420.928,478.233 412.095,489.733 396.5,496C 281.868,497.657 167.202,497.99 52.5,497C 40.7569,492.924 32.5902,485.091 28,473.5C 25.3918,466.4 24.0584,459.067 24,451.5C 18.6676,345.188 14.0009,238.854 10,132.5C 11.3189,130.513 13.1523,129.346 15.5,129C 49.8333,128.667 84.1667,128.333 118.5,128C 121.184,103.938 128.351,81.1052 140,59.5C 153.657,38.8353 171.824,23.6686 194.5,14C 201.276,12.3782 207.943,10.8782 214.5,9.5 Z M 218.5,39.5 C 211.385,40.8692 204.385,43.0358 197.5,46C 169.992,62.142 154.992,86.3086 152.5,118.5C 200.834,118.667 249.168,118.5 297.5,118C 295.272,102.984 290.439,88.8174 283,75.5C 268.44,51.1353 246.94,39.1353 218.5,39.5 Z"/></g>
<g><path style="opacity:0.978" fill="#fdfcfb" d="M 214.5,29.5 C 248.391,27.3616 274.225,40.6949 292,69.5C 302.751,87.0701 307.751,106.07 307,126.5C 306.5,127 306,127.5 305.5,128C 251.5,128.667 197.5,128.667 143.5,128C 142.667,127.167 141.833,126.333 141,125.5C 142.166,89.3242 157.333,60.8242 186.5,40C 195.224,34.4545 204.557,30.9545 214.5,29.5 Z M 218.5,39.5 C 211.385,40.8692 204.385,43.0358 197.5,46C 169.992,62.142 154.992,86.3086 152.5,118.5C 200.834,118.667 249.168,118.5 297.5,118C 295.272,102.984 290.439,88.8174 283,75.5C 268.44,51.1353 246.94,39.1353 218.5,39.5 Z"/></g>
<g><path style="opacity:1" fill="#fffdfc" d="M 209.5,181.5 C 238.932,179.858 266.265,186.691 291.5,202C 295.291,203.38 297.958,205.88 299.5,209.5C 296.932,217.805 292.932,225.305 287.5,232C 280.985,231.425 274.985,229.092 269.5,225C 251.246,215.735 231.913,212.068 211.5,214C 194.008,216.834 182.841,226.668 178,243.5C 177.335,255.341 181.501,265.174 190.5,273C 196.846,277.174 203.512,280.841 210.5,284C 232.343,291.089 253.343,300.089 273.5,311C 311.081,334.857 319.581,366.69 299,406.5C 279.813,433.333 253.647,444.833 220.5,441C 190.34,440.061 163.673,430.061 140.5,411C 138.226,409.235 136.559,407.068 135.5,404.5C 138.584,394.26 144.751,386.593 154,381.5C 165.868,389.004 178.035,396.171 190.5,403C 213.435,412.14 236.102,411.473 258.5,401C 274.108,393.215 279.941,380.715 276,363.5C 274.697,356.059 271.197,349.892 265.5,345C 260.344,340.586 254.677,336.919 248.5,334C 229.613,326.057 210.613,318.39 191.5,311C 176.497,304.753 163.997,295.253 154,282.5C 137.786,252.275 141.953,225.108 166.5,201C 179.264,190.917 193.597,184.417 209.5,181.5 Z"/></g>
</svg>
