<?xml version="1.0" encoding="UTF-8"?>
<!DOCTYPE svg PUBLIC "-//W3C//DTD SVG 1.1//EN" "http://www.w3.org/Graphics/SVG/1.1/DTD/svg11.dtd">
<svg xmlns="http://www.w3.org/2000/svg" version="1.1" width="854px" height="681px" style="shape-rendering:geometricPrecision; text-rendering:geometricPrecision; image-rendering:optimizeQuality; fill-rule:evenodd; clip-rule:evenodd" xmlns:xlink="http://www.w3.org/1999/xlink">
<g><path style="opacity:0.922" fill="#fbd20f" d="M 33.5,-0.5 C 34.8333,-0.5 36.1667,-0.5 37.5,-0.5C 39.8866,7.8299 42.3866,16.1632 45,24.5C 53.358,27.3824 61.858,29.8824 70.5,32C 71.959,35.0838 70.959,37.0838 67.5,38C 59.8495,39.9962 52.1828,41.8295 44.5,43.5C 42.9863,51.5561 41.153,59.5561 39,67.5C 37.33,69.6983 35.33,70.0317 33,68.5C 30.6728,60.1906 28.5061,51.8573 26.5,43.5C 19.4808,42.1624 12.4808,40.6624 5.5,39C 3.11327,38.4363 1.11327,37.2696 -0.5,35.5C -0.5,35.1667 -0.5,34.8333 -0.5,34.5C 0.316435,32.8564 1.64977,31.6897 3.5,31C 11.0859,29.0257 18.5859,26.859 26,24.5C 28.1803,16.0241 30.6803,7.69074 33.5,-0.5 Z"/></g>
<g><path style="opacity:0.915" fill="#fad10c" d="M 243.5,-0.5 C 245.167,-0.5 246.833,-0.5 248.5,-0.5C 251.871,4.27459 253.871,9.60793 254.5,15.5C 258.858,16.5065 263.191,17.6731 267.5,19C 270.894,20.5652 271.228,22.5652 268.5,25C 263.568,26.2731 258.735,27.7731 254,29.5C 248.974,49.6357 244.474,49.3024 240.5,28.5C 235.402,27.8091 230.402,26.6425 225.5,25C 224.167,23.3333 224.167,21.6667 225.5,20C 230.759,17.9027 235.926,15.736 241,13.5C 242.158,8.88245 242.992,4.21578 243.5,-0.5 Z"/></g>
<g><path style="opacity:0.925" fill="#fcd311" d="M 181.5,9.5 C 183.39,9.2965 184.89,9.96317 186,11.5C 188.661,21.8107 191.161,32.144 193.5,42.5C 203.85,44.8372 214.183,47.3372 224.5,50C 227.326,52.5219 226.993,54.5219 223.5,56C 213.877,58.8223 204.211,61.489 194.5,64C 191.128,73.9832 188.295,84.1499 186,94.5C 183.667,97.1667 181.333,97.1667 179,94.5C 177.087,84.1745 174.254,74.1745 170.5,64.5C 160.506,61.6679 150.506,58.8346 140.5,56C 137.842,53.6144 138.175,51.6144 141.5,50C 151.549,47.7931 161.382,44.9598 171,41.5C 173.836,33.3262 176.169,24.9928 178,16.5C 178.653,13.8608 179.82,11.5274 181.5,9.5 Z"/></g>
<g><path style="opacity:1" fill="#fffdf2" d="M 247.5,11.5 C 247.87,17.7062 251.204,21.2062 257.5,22C 255.122,22.5112 252.788,23.1779 250.5,24C 249.144,26.3976 247.977,28.8976 247,31.5C 246.491,25.6573 243.324,22.4906 237.5,22C 243.062,20.6052 246.395,17.1052 247.5,11.5 Z"/></g>
<g><path style="opacity:1" fill="#fffdf8" d="M 34.5,11.5 C 36.6203,16.6041 38.4537,21.9374 40,27.5C 41.214,29.0488 42.714,30.2155 44.5,31C 48.3351,31.7074 52.0018,32.8741 55.5,34.5C 50.1435,36.1254 44.9769,38.1254 40,40.5C 38.3532,45.7538 37.0199,51.0871 36,56.5C 34.3557,51.923 33.0224,47.2564 32,42.5C 31.5348,41.0692 30.7014,39.9025 29.5,39C 23.7652,37.6875 18.0985,36.1875 12.5,34.5C 18.7721,32.7258 24.9388,30.7258 31,28.5C 33.1104,23.009 34.277,17.3423 34.5,11.5 Z"/></g>
<g><path style="opacity:1" fill="#fffefa" d="M 181.5,22.5 C 182.586,22.62 183.253,23.2867 183.5,24.5C 185,30.5 186.5,36.5 188,42.5C 188.273,44.3289 189.107,45.8289 190.5,47C 197.833,49 205.167,51 212.5,53C 204.509,55.1205 196.675,57.6205 189,60.5C 186.795,68.1152 184.795,75.7819 183,83.5C 180.713,75.6372 178.213,67.8039 175.5,60C 167.403,57.976 159.403,55.6427 151.5,53C 160.35,51.9398 168.516,49.1065 176,44.5C 178.915,37.4245 180.748,30.0912 181.5,22.5 Z"/></g>
<g><path style="opacity:0.923" fill="#fbd20f" d="M 110.5,51.5 C 112.39,51.2965 113.89,51.9632 115,53.5C 116.7,61.9307 119.2,70.0973 122.5,78C 129.746,80.3114 137.079,82.3114 144.5,84C 147.838,85.9879 148.172,88.3212 145.5,91C 137.528,92.7839 129.695,94.9505 122,97.5C 119.468,105.43 117.135,113.43 115,121.5C 114.481,122.516 113.647,123.182 112.5,123.5C 110.372,122.946 108.872,121.613 108,119.5C 106.716,112.078 105.049,104.744 103,97.5C 94.9813,94.6056 86.8147,92.1056 78.5,90C 75.6736,87.4781 76.0069,85.4781 79.5,84C 87.3837,81.9048 95.217,79.7382 103,77.5C 105.006,68.6532 107.506,59.9866 110.5,51.5 Z"/></g>
<g><path style="opacity:1" fill="#fffef9" d="M 111.5,65.5 C 113.543,70.7735 115.709,76.1068 118,81.5C 123.038,83.7911 128.204,85.7911 133.5,87.5C 127.849,89.2806 122.349,91.2806 117,93.5C 115.18,99.1099 113.514,104.777 112,110.5C 111.139,104.722 109.806,99.0555 108,93.5C 102.221,91.2607 96.3879,89.094 90.5,87C 95.7176,85.5717 100.884,84.0717 106,82.5C 108.422,76.9983 110.255,71.3316 111.5,65.5 Z"/></g>
<g><path style="opacity:0.93" fill="#fbd312" d="M 853.5,647.5 C 853.5,648.833 853.5,650.167 853.5,651.5C 851.288,666.383 842.955,676.049 828.5,680.5C 825.5,680.5 822.5,680.5 819.5,680.5C 815.05,679.285 810.717,677.451 806.5,675C 802.783,671.615 798.783,668.615 794.5,666C 708.289,590.285 621.956,514.785 535.5,439.5C 530.757,437.281 525.757,436.114 520.5,436C 494.849,434.856 469.182,434.189 443.5,434C 403.707,434.173 370.207,420.007 343,391.5C 321.537,361.659 312.204,328.326 315,291.5C 315.799,285.102 317.799,279.102 321,273.5C 322.765,271.226 324.932,269.559 327.5,268.5C 328.647,268.818 329.481,269.484 330,270.5C 326.534,304.968 334.201,336.635 353,365.5C 370.134,386.489 391.968,399.989 418.5,406C 446.915,411.383 475.581,413.717 504.5,413C 409.931,330.255 315.264,247.755 220.5,165.5C 216.536,161.38 215.702,156.714 218,151.5C 223.155,147.629 228.321,147.796 233.5,152C 267,178.167 300.5,204.333 334,230.5C 336.279,207.77 335.612,185.103 332,162.5C 326.144,132.658 309.311,111.825 281.5,100C 275.434,98.3042 269.268,97.1376 263,96.5C 251.374,98.0736 240.041,100.74 229,104.5C 225.652,101.846 225.818,99.3459 229.5,97C 251.395,81.7507 275.062,77.7507 300.5,85C 319.939,92.7721 333.772,106.272 342,125.5C 351.095,148.406 354.095,172.073 351,196.5C 348.589,208.557 345.922,220.557 343,232.5C 342.535,233.931 341.701,235.097 340.5,236C 419.167,297.333 497.833,358.667 576.5,420C 579.382,421.608 582.382,422.941 585.5,424C 621.104,429.731 655.104,440.398 687.5,456C 697.105,460.715 705.938,466.549 714,473.5C 716.402,476.451 715.736,478.451 712,479.5C 682.537,469.678 652.704,461.511 622.5,455C 692.443,510.966 763.109,565.966 834.5,620C 839.376,624.175 843.876,628.675 848,633.5C 850.943,637.845 852.776,642.511 853.5,647.5 Z"/></g>
<g><path style="opacity:1" fill="#fffefa" d="M 342.5,210.5 C 341.833,203.167 341.167,195.833 340.5,188.5C 341.291,154.603 328.958,126.77 303.5,105C 288.783,94.9021 272.45,90.2354 254.5,91C 276.475,82.8616 296.808,85.8616 315.5,100C 321.329,105.463 326.829,111.297 332,117.5C 347.191,147.17 350.691,178.17 342.5,210.5 Z"/></g>
<g><path style="opacity:0.917" fill="#fcd30f" d="M 259.5,116.5 C 261.144,116.286 262.644,116.62 264,117.5C 265.794,122.867 267.96,128.033 270.5,133C 275.415,133.305 279.915,134.805 284,137.5C 284.72,139.112 284.554,140.612 283.5,142C 278.598,143.642 273.598,144.809 268.5,145.5C 264.237,168.142 259.904,168.142 255.5,145.5C 250.402,144.809 245.402,143.642 240.5,142C 239.594,140.301 239.261,138.467 239.5,136.5C 244.559,135.036 249.559,133.369 254.5,131.5C 255.975,126.409 257.641,121.409 259.5,116.5 Z"/></g>
<g><path style="opacity:1" fill="#fffdf6" d="M 261.5,128.5 C 262.621,130.741 263.787,133.075 265,135.5C 266.319,137.487 268.152,138.654 270.5,139C 265.21,139.958 262.376,143.124 262,148.5C 261.367,142.202 257.867,139.035 251.5,139C 253.98,138.04 256.48,137.207 259,136.5C 259.84,133.798 260.673,131.132 261.5,128.5 Z"/></g>
<g><path style="opacity:0.925" fill="#fbd20a" d="M 55.5,149.5 C 57.1439,149.286 58.6439,149.62 60,150.5C 61.0399,155.664 62.5399,160.664 64.5,165.5C 68.9978,166.541 73.3311,168.041 77.5,170C 79.229,171.789 79.8957,173.956 79.5,176.5C 74.3733,176.859 69.3733,177.859 64.5,179.5C 62.7203,184.064 61.2203,188.73 60,193.5C 58.5074,195.56 56.6741,195.893 54.5,194.5C 52.78,189.165 50.78,183.998 48.5,179C 43.1942,178.28 38.3609,176.447 34,173.5C 33.564,171.704 34.2307,170.371 36,169.5C 40.7399,168.316 45.4065,166.983 50,165.5C 51.1065,161.196 52.1065,156.863 53,152.5C 54.045,151.627 54.8783,150.627 55.5,149.5 Z"/></g>
<g><path style="opacity:0.921" fill="#fcd30f" d="M 161.5,149.5 C 163.144,149.286 164.644,149.62 166,150.5C 168.347,158.891 170.847,167.224 173.5,175.5C 180.451,177.488 187.451,179.321 194.5,181C 196.64,181.973 198.307,183.473 199.5,185.5C 199.135,186.902 198.301,187.902 197,188.5C 189.177,190.581 181.344,192.581 173.5,194.5C 171.733,202.505 169.399,210.338 166.5,218C 164.844,220.925 163.011,221.092 161,218.5C 158.988,210.783 156.821,203.116 154.5,195.5C 146.678,192.504 138.678,190.004 130.5,188C 127.106,186.435 126.772,184.435 129.5,182C 138.034,179.953 146.367,177.453 154.5,174.5C 156.684,166.093 159.017,157.76 161.5,149.5 Z"/></g>
<g><path style="opacity:1" fill="#fffefd" d="M 322.5,282.5 C 323.167,286.167 323.833,289.833 324.5,293.5C 329.501,366.67 368.501,407.503 441.5,416C 466.124,418.265 490.791,419.265 515.5,419C 516.535,417.493 516.368,415.993 515,414.5C 417.32,329.815 319.987,244.815 223,159.5C 222.506,157.866 222.34,156.199 222.5,154.5C 226.604,154.884 230.271,156.384 233.5,159C 346.833,247.667 460.167,336.333 573.5,425C 577.271,427.219 581.271,428.885 585.5,430C 624.366,436.115 661.033,448.449 695.5,467C 696.888,467.889 696.722,468.389 695,468.5C 666.621,459.739 637.954,452.072 609,445.5C 606.681,446.409 606.014,448.075 607,450.5C 684.38,511.548 762.047,572.215 840,632.5C 850.43,645.658 849.596,658.158 837.5,670C 829.56,675.134 821.227,675.8 812.5,672C 807.5,668.333 802.5,664.667 797.5,661C 711.129,584.961 624.463,509.294 537.5,434C 529.687,431.587 521.687,430.253 513.5,430C 487.846,428.901 462.18,428.234 436.5,428C 397.492,426.58 365.992,410.747 342,380.5C 327.505,356.192 320.005,329.859 319.5,301.5C 319.745,295.029 320.745,288.696 322.5,282.5 Z"/></g>
<g><path style="opacity:1" fill="#fffcf2" d="M 56.5,162.5 C 57.9265,164.148 58.7599,166.148 59,168.5C 60.9251,170.213 63.0918,171.547 65.5,172.5C 63.0918,173.453 60.9251,174.787 59,176.5C 58.7105,178.952 58.0438,181.285 57,183.5C 55.8779,180.924 54.8779,178.257 54,175.5C 48.1148,172.976 48.4482,170.976 55,169.5C 55.662,167.187 56.162,164.854 56.5,162.5 Z"/></g>
<g><path style="opacity:1" fill="#fffdf8" d="M 163.5,163.5 C 165.337,169.16 167.337,174.826 169.5,180.5C 175.118,182.155 180.784,183.655 186.5,185C 180.843,186.564 175.176,188.064 169.5,189.5C 166.981,195.232 165.148,201.232 164,207.5C 162.822,202.457 161.489,197.457 160,192.5C 159.167,191.667 158.333,190.833 157.5,190C 152.095,188.531 146.761,186.865 141.5,185C 147.11,183.18 152.777,181.514 158.5,180C 160.401,174.563 162.067,169.063 163.5,163.5 Z"/></g>
<g><path style="opacity:1" fill="#ffefa1" d="M 340.5,188.5 C 341.167,195.833 341.833,203.167 342.5,210.5C 342.108,212.179 341.608,213.846 341,215.5C 340.5,206.506 340.334,197.506 340.5,188.5 Z"/></g>
<g><path style="opacity:0.921" fill="#fbd210" d="M 96.5,205.5 C 100.344,206.17 102.844,208.504 104,212.5C 105.791,221.133 107.958,229.633 110.5,238C 119.417,240.584 128.417,242.918 137.5,245C 141.393,246.335 143.06,248.835 142.5,252.5C 131.962,254.385 121.628,257.051 111.5,260.5C 110.416,261.665 109.583,262.998 109,264.5C 106.539,273.803 104.206,283.136 102,292.5C 100.542,293.747 99.0421,293.747 97.5,292.5C 96.3378,290.176 95.1711,287.842 94,285.5C 92.5254,276.95 90.3587,268.617 87.5,260.5C 78.1772,258.002 68.8439,255.502 59.5,253C 56.6616,251.245 55.995,248.912 57.5,246C 67.7615,243.394 77.9281,240.56 88,237.5C 91.4645,226.974 94.2978,216.307 96.5,205.5 Z"/></g>
<g><path style="opacity:1" fill="#fffef9" d="M 98.5,219.5 C 99.5862,219.62 100.253,220.287 100.5,221.5C 101.535,229.157 103.868,236.324 107.5,243C 114.919,245.885 122.586,247.885 130.5,249C 123.079,250.689 115.746,252.689 108.5,255C 106.383,256.731 104.883,258.898 104,261.5C 101.925,267.725 100.258,274.059 99,280.5C 97.3797,272.731 95.3797,265.064 93,257.5C 91.0679,255.962 88.9012,254.795 86.5,254C 80.0307,252.8 73.6974,251.133 67.5,249C 75.96,247.068 84.2933,244.735 92.5,242C 95.0468,234.646 97.0468,227.146 98.5,219.5 Z"/></g>
<g><path style="opacity:1" fill="#ffefa3" d="M 324.5,293.5 C 323.833,289.833 323.167,286.167 322.5,282.5C 322.987,281.527 323.487,280.527 324,279.5C 324.499,284.155 324.666,288.821 324.5,293.5 Z"/></g>
</svg>
