<?xml version="1.0" encoding="UTF-8"?>
<!DOCTYPE svg PUBLIC "-//W3C//DTD SVG 1.1//EN" "http://www.w3.org/Graphics/SVG/1.1/DTD/svg11.dtd">
<svg xmlns="http://www.w3.org/2000/svg" version="1.1" width="886px" height="790px" style="shape-rendering:geometricPrecision; text-rendering:geometricPrecision; image-rendering:optimizeQuality; fill-rule:evenodd; clip-rule:evenodd" xmlns:xlink="http://www.w3.org/1999/xlink">
<g><path style="opacity:0.96" fill="#fcfcfb" d="M 419.5,-0.5 C 422.167,-0.5 424.833,-0.5 427.5,-0.5C 435.654,5.47027 443.987,11.3036 452.5,17C 464.213,23.4038 475.546,22.7372 486.5,15C 493.924,10.3003 500.924,5.13364 507.5,-0.5C 510.5,-0.5 513.5,-0.5 516.5,-0.5C 518.109,1.60147 518.609,3.93481 518,6.5C 512,15.1667 506,23.8333 500,32.5C 493.516,44.8755 494.182,56.8755 502,68.5C 508.423,77.6782 515.089,86.6782 522,95.5C 523.357,100.126 521.691,102.793 517,103.5C 513.989,102.41 511.156,100.91 508.5,99C 496.807,87.4032 482.974,79.5699 467,75.5C 460.73,76.4789 454.897,78.6456 449.5,82C 439.884,88.6153 430.55,95.6153 421.5,103C 415.019,104.357 412.519,101.857 414,95.5C 419.947,86.5528 426.28,77.8862 433,69.5C 442.033,57.1965 442.7,44.5298 435,31.5C 428.608,22.6163 422.441,13.6163 416.5,4.5C 417.26,2.63964 418.26,0.972969 419.5,-0.5 Z"/></g>
<g><path style="opacity:1" fill="#ffd811" d="M 442.5,23.5 C 454.867,31.785 468.201,33.6183 482.5,29C 486.191,26.9808 489.858,25.3142 493.5,24C 481.838,39.9061 481.504,56.0728 492.5,72.5C 492.167,72.8333 491.833,73.1667 491.5,73.5C 474.996,62.689 458.829,63.0224 443,74.5C 445.526,69.0885 447.859,63.4218 450,57.5C 452.203,50.3817 451.869,43.3817 449,36.5C 446.807,32.1136 444.64,27.7802 442.5,23.5 Z"/></g>
<g><path style="opacity:0.963" fill="#fdfcfb" d="M 885.5,61.5 C 885.5,64.1667 885.5,66.8333 885.5,69.5C 878.268,78.5794 870.768,87.5794 863,96.5C 857.723,103.459 853.723,111.126 851,119.5C 849.531,129.9 850.865,139.9 855,149.5C 864.077,166.661 873.911,183.328 884.5,199.5C 883.82,204.359 881.153,206.193 876.5,205C 866.869,197.038 857.536,188.704 848.5,180C 839.894,172.063 830.227,165.73 819.5,161C 808.284,157.487 797.284,158.154 786.5,163C 769.178,171.657 752.512,181.323 736.5,192C 732.074,193.252 729.408,191.586 728.5,187C 737.242,175.586 746.742,164.752 757,154.5C 763.917,146.343 769.584,137.343 774,127.5C 777.268,115.079 775.935,103.079 770,91.5C 761.795,75.9759 752.795,60.9759 743,46.5C 741.25,38.578 744.083,36.078 751.5,39C 764.277,52.117 777.944,64.117 792.5,75C 808.357,86.0575 825.023,87.3908 842.5,79C 854.329,72.5862 865.996,65.9196 877.5,59C 880.775,58.0182 883.441,58.8515 885.5,61.5 Z"/></g>
<g><path style="opacity:0.947" fill="#fefefb" d="M 88.5,789.5 C 84.1667,789.5 79.8333,789.5 75.5,789.5C 41.9026,776.409 17.4026,753.409 2,720.5C 1.26201,717.009 0.428675,713.675 -0.5,710.5C -0.5,708.167 -0.5,705.833 -0.5,703.5C 0.355367,700.825 1.52203,698.158 3,695.5C 211.167,487.333 419.333,279.167 627.5,71C 636.432,66.5672 645.432,66.5672 654.5,71C 684.892,85.7241 706.726,108.557 720,139.5C 722.567,147.49 721.9,155.157 718,162.5C 510.167,370.333 302.333,578.167 94.5,786C 92.5681,787.459 90.5681,788.625 88.5,789.5 Z M 633.5,122.5 C 650.478,127.309 661.811,138.142 667.5,155C 618.221,204.279 568.887,253.613 519.5,303C 518.833,303.667 518.167,303.667 517.5,303C 506.833,292.333 496.167,281.667 485.5,271C 535.035,221.632 584.368,172.132 633.5,122.5 Z"/></g>
<g><path style="opacity:1" fill="#ffd70c" d="M 771.5,73.5 C 771.897,72.475 772.563,72.3083 773.5,73C 787.862,87.5183 805.195,94.8516 825.5,95C 828.167,94.3333 830.833,93.6667 833.5,93C 843.651,89.745 853.318,85.745 862.5,81C 850.935,92.6308 843.435,106.464 840,122.5C 839.178,129.634 839.845,136.634 842,143.5C 845.317,152.819 848.984,161.819 853,170.5C 825.907,144.12 796.573,141.453 765,162.5C 764.333,161.833 764.333,161.167 765,160.5C 791.185,133.282 793.352,104.282 771.5,73.5 Z"/></g>
<g><path style="opacity:1" fill="#ffd701" d="M 634.5,78.5 C 638.182,78.3347 641.848,78.5014 645.5,79C 673.413,90.9119 694.246,110.412 708,137.5C 711.291,143.289 711.957,149.289 710,155.5C 502.5,363 295,570.5 87.5,778C 82.0776,779.992 76.7442,779.659 71.5,777C 44.585,763.752 24.7517,743.585 12,716.5C 10.6071,711.905 10.2738,707.239 11,702.5C 219.035,494.632 426.868,286.632 634.5,78.5 Z M 633.5,122.5 C 584.368,172.132 535.035,221.632 485.5,271C 496.167,281.667 506.833,292.333 517.5,303C 518.167,303.667 518.833,303.667 519.5,303C 568.887,253.613 618.221,204.279 667.5,155C 661.811,138.142 650.478,127.309 633.5,122.5 Z"/></g>
<g><path style="opacity:0.98" fill="#fdfdfc" d="M 632.5,111.5 C 654.197,116.023 669.03,128.69 677,149.5C 677.667,152.5 677.667,155.5 677,158.5C 673.942,160.957 671.608,163.957 670,167.5C 620.5,217 571,266.5 521.5,316C 519.029,316.706 516.695,316.373 514.5,315C 501,301.5 487.5,288 474,274.5C 472.699,272.635 472.365,270.635 473,268.5C 524.167,217.333 575.333,166.167 626.5,115C 628.727,114.059 630.727,112.892 632.5,111.5 Z M 633.5,122.5 C 584.368,172.132 535.035,221.632 485.5,271C 496.167,281.667 506.833,292.333 517.5,303C 518.167,303.667 518.833,303.667 519.5,303C 568.887,253.613 618.221,204.279 667.5,155C 661.811,138.142 650.478,127.309 633.5,122.5 Z"/></g>
<g><path style="opacity:0.958" fill="#fdfcfc" d="M 700.5,200.5 C 703.652,199.959 706.152,200.959 708,203.5C 710.626,215.01 714.626,226.01 720,236.5C 725.243,243.037 732.076,246.204 740.5,246C 748.703,246.788 756.87,246.621 765,245.5C 772.405,247.952 773.239,251.786 767.5,257C 757.97,259.399 748.637,262.399 739.5,266C 731.968,269.528 727.468,275.361 726,283.5C 725.667,294.5 725.333,305.5 725,316.5C 722.206,320.023 719.04,320.356 715.5,317.5C 712.225,305.843 708.059,294.51 703,283.5C 699.908,279.072 695.741,276.239 690.5,275C 678.529,273.89 666.529,273.223 654.5,273C 651.021,270.366 650.687,267.366 653.5,264C 662.906,261.198 672.239,258.198 681.5,255C 690.542,252.085 695.708,245.918 697,236.5C 697.333,225.5 697.667,214.5 698,203.5C 699.045,202.627 699.878,201.627 700.5,200.5 Z"/></g>
<g><path style="opacity:1" fill="#ffd814" d="M 707.5,236.5 C 713.115,248.274 722.448,254.774 735.5,256C 723.726,261.446 716.893,270.613 715,283.5C 709.628,271.724 700.461,265.224 687.5,264C 699.322,258.665 705.989,249.499 707.5,236.5 Z"/></g>
</svg>
