<?xml version="1.0" encoding="UTF-8"?>
<!DOCTYPE svg PUBLIC "-//W3C//DTD SVG 1.1//EN" "http://www.w3.org/Graphics/SVG/1.1/DTD/svg11.dtd">
<svg xmlns="http://www.w3.org/2000/svg" version="1.1" width="240px" height="240px" style="shape-rendering:geometricPrecision; text-rendering:geometricPrecision; image-rendering:optimizeQuality; fill-rule:evenodd; clip-rule:evenodd" xmlns:xlink="http://www.w3.org/1999/xlink">
<g><path style="opacity:0.97" fill="#24d265" d="M 102.5,-0.5 C 114.167,-0.5 125.833,-0.5 137.5,-0.5C 180.745,7.58069 211.578,31.5807 230,71.5C 235.034,84.5253 238.2,97.8586 239.5,111.5C 239.5,116.833 239.5,122.167 239.5,127.5C 232.316,183.856 201.316,219.689 146.5,235C 117.495,241.21 89.6618,237.71 63,224.5C 44.2323,228.981 25.7323,233.981 7.5,239.5C 4.83333,239.5 2.16667,239.5 -0.5,239.5C -0.5,238.833 -0.5,238.167 -0.5,237.5C 5.09449,218.196 10.4278,198.696 15.5,179C -6.93324,133.149 -4.09991,88.9827 24,46.5C 44.4299,21.2037 70.5966,5.53701 102.5,-0.5 Z M 107.5,20.5 C 157.132,18.0505 191.965,39.3838 212,84.5C 226.327,133.527 212.827,172.693 171.5,202C 145.668,217.304 118.335,220.637 89.5,212C 83.8878,209.861 78.5545,207.194 73.5,204C 70.5807,202.86 67.5807,202.027 64.5,201.5C 53.1475,204.172 41.8142,206.838 30.5,209.5C 33.1608,198.514 35.8275,187.514 38.5,176.5C 34.6961,167.551 30.8627,158.551 27,149.5C 15.0835,106.984 25.5835,71.1506 58.5,42C 72.9848,30.4557 89.3182,23.289 107.5,20.5 Z"/></g>
<g><path style="opacity:0.973" fill="#24d265" d="M 77.5,62.5 C 80.9783,62.1842 84.3117,62.6842 87.5,64C 94.009,73.3596 98.3423,83.6929 100.5,95C 98.0218,100.286 95.0218,105.286 91.5,110C 100.385,128.717 114.718,141.217 134.5,147.5C 139.685,143.149 144.351,138.316 148.5,133C 159.636,134.892 169.97,139.059 179.5,145.5C 182.388,161.136 176.054,170.97 160.5,175C 149.483,176.944 138.816,175.611 128.5,171C 102.786,159.956 82.6189,142.456 68,118.5C 59.9054,106.133 57.5721,92.7996 61,78.5C 64.4377,70.8934 69.9377,65.56 77.5,62.5 Z"/></g>
</svg>
